<svg width="28" height="28" viewBox="0 0 28 28" fill="none" xmlns="http://www.w3.org/2000/svg">
<mask id="mask0_23_2894" style="mask-type:luminance" maskUnits="userSpaceOnUse" x="0" y="0" width="28" height="28">
<path d="M15.0353 22.6509C18.3604 21.7835 22.2018 20.978 26.477 20.3584C26.477 20.3584 28.2325 20.1932 27.6542 18.9747C27.4683 18.5823 26.3737 16.6203 24.9487 14.1213C22.6149 16.7442 19.3104 19.8834 15.0353 22.6509ZM7.33177 24.964C7.60026 24.8814 7.86875 24.7782 8.13723 24.6749C16.1092 20.0486 20.6529 14.5963 23.0486 10.7755C22.5942 9.97004 22.1192 9.16458 21.6649 8.35912C19.2485 12.9647 14.7462 19.6769 7.33177 24.964ZM25.1552 2.55566C26.5389 2.55566 27.6749 3.69157 27.6749 5.07531C27.6749 6.45905 26.5389 7.59496 25.1552 7.59496C23.7715 7.59496 22.6356 6.45905 22.6356 5.07531C22.6356 3.69157 23.7715 2.55566 25.1552 2.55566ZM0 28C0 28 1.0946 27.4217 3.15989 26.5543C14.3537 18.004 18.0713 8.64826 19.2691 4.16659C18.1539 2.22522 17.3897 0.903432 17.3897 0.903432C17.3897 0.903432 16.2538 -1.05859 14.8081 0.800167L0 28Z" fill="white"/>
</mask>
<g mask="url(#mask0_23_2894)">
<path d="M28.2325 -1.05859H0V28H28.2325V-1.05859Z" fill="url(#paint0_linear_23_2894)"/>
</g>
<defs>
<linearGradient id="paint0_linear_23_2894" x1="0.00293271" y1="13.4781" x2="27.7769" y2="13.4781" gradientUnits="userSpaceOnUse">
<stop stop-color="#6952E0"/>
<stop offset="1" stop-color="#DB4CA3"/>
</linearGradient>
</defs>
</svg>
