<svg width="24" height="24" viewBox="0 0 24 24" fill="none" xmlns="http://www.w3.org/2000/svg">
<path d="M10 10V5C10 4.73478 10.1054 4.48043 10.2929 4.29289C10.4804 4.10536 10.7348 4 11 4H13C13.2652 4 13.5196 4.10536 13.7071 4.29289C13.8946 4.48043 14 4.73478 14 5V10" stroke="#9251F4" stroke-width="1.66667" stroke-linecap="round" stroke-linejoin="round"/>
<path d="M14 6C15.5913 6 17.1174 6.63214 18.2426 7.75736C19.3679 8.88258 20 10.4087 20 12V15" stroke="#9251F4" stroke-width="1.66667" stroke-linecap="round" stroke-linejoin="round"/>
<path d="M4 15V12C4 10.4087 4.63214 8.88258 5.75736 7.75736C6.88258 6.63214 8.4087 6 10 6" stroke="#9251F4" stroke-width="1.66667" stroke-linecap="round" stroke-linejoin="round"/>
<path d="M21.5078 14.728H3.50781C2.95553 14.728 2.50781 15.1757 2.50781 15.728V17.728C2.50781 18.2803 2.95553 18.728 3.50781 18.728H21.5078C22.0601 18.728 22.5078 18.2803 22.5078 17.728V15.728C22.5078 15.1757 22.0601 14.728 21.5078 14.728Z" stroke="#9251F4" stroke-width="1.66667" stroke-linecap="round" stroke-linejoin="round"/>
</svg>
