<svg width="24" height="24" viewBox="0 0 24 24" fill="none" xmlns="http://www.w3.org/2000/svg">
<g clip-path="url(#clip0_23_2682)">
<path d="M17.6574 14.828L16.2434 13.414L17.6574 12C18.0288 11.6286 18.3235 11.1876 18.5245 10.7023C18.7255 10.217 18.829 9.69683 18.829 9.17152C18.829 8.64622 18.7255 8.12607 18.5245 7.64075C18.3235 7.15544 18.0288 6.71447 17.6574 6.34302C17.2859 5.97158 16.845 5.67694 16.3597 5.47591C15.8743 5.27489 15.3542 5.17142 14.8289 5.17142C14.3036 5.17142 13.7834 5.27489 13.2981 5.47591C12.8128 5.67694 12.3718 5.97158 12.0004 6.34302L10.5864 7.75702L9.17239 6.34302L10.5864 4.92902C11.7147 3.81894 13.2359 3.19968 14.8188 3.20612C16.4016 3.21257 17.9177 3.8442 19.037 4.96343C20.1562 6.08267 20.7878 7.59882 20.7943 9.18164C20.8007 10.7645 20.1815 12.2857 19.0714 13.414L17.6574 14.828ZM14.8294 17.657L13.4144 19.071C12.2861 20.1811 10.7648 20.8004 9.18201 20.7939C7.59919 20.7875 6.08303 20.1558 4.9638 19.0366C3.84457 17.9174 3.21294 16.4012 3.20649 14.8184C3.20005 13.2356 3.81931 11.7143 4.92939 10.586L6.34339 9.17202L7.75739 10.586L6.34339 12C5.59323 12.7502 5.17179 13.7676 5.17179 14.8285C5.17179 15.8894 5.59323 16.9069 6.34339 17.657C7.09356 18.4072 8.111 18.8286 9.17189 18.8286C10.2328 18.8286 11.2502 18.4072 12.0004 17.657L13.4144 16.243L14.8294 17.657ZM14.8294 7.75702L16.2434 9.17202L9.17239 16.242L7.75739 14.828L14.8294 7.75702ZM5.77539 2.29302L7.70739 1.77502L8.74339 5.64002L6.81139 6.15802L5.77539 2.29302ZM15.2584 18.361L17.1904 17.843L18.2254 21.707L16.2934 22.225L15.2584 18.361ZM2.29339 5.77502L6.15739 6.81102L5.63939 8.74202L1.77539 7.70702L2.29339 5.77502ZM18.3614 15.258L22.2254 16.293L21.7074 18.225L17.8434 17.189L18.3614 15.258Z" fill="#9251F4"/>
</g>
<defs>
<clipPath id="clip0_23_2682">
<rect width="24" height="24" fill="white"/>
</clipPath>
</defs>
</svg>
