<svg width="24" height="24" viewBox="0 0 24 24" fill="none" xmlns="http://www.w3.org/2000/svg">
<path d="M12 13C12.5523 13 13 12.5523 13 12C13 11.4477 12.5523 11 12 11C11.4477 11 11 11.4477 11 12C11 12.5523 11.4477 13 12 13Z" stroke="#9251F4" stroke-width="1.66667" stroke-linecap="round" stroke-linejoin="round"/>
<path d="M20.2004 20.1999C22.2404 18.1699 20.2204 12.8399 15.7004 8.29989C11.1604 3.77989 5.83037 1.75989 3.80037 3.79989C1.76037 5.82989 3.78037 11.1599 8.30037 15.6999C12.8404 20.2199 18.1704 22.2399 20.2004 20.1999Z" stroke="#9251F4" stroke-width="1.66667" stroke-linecap="round" stroke-linejoin="round"/>
<path d="M15.7004 15.6999C20.2204 11.1599 22.2404 5.82989 20.2004 3.79989C18.1704 1.75989 12.8404 3.77989 8.30037 8.29989C3.78037 12.8399 1.76037 18.1699 3.80037 20.1999C5.83037 22.2399 11.1604 20.2199 15.7004 15.6999Z" stroke="#9251F4" stroke-width="1.66667" stroke-linecap="round" stroke-linejoin="round"/>
</svg>
