<svg width="24" height="24" viewBox="0 0 24 24" fill="none" xmlns="http://www.w3.org/2000/svg">
<path d="M19 7V4C19 3.73478 18.8946 3.48043 18.7071 3.29289C18.5196 3.10536 18.2652 3 18 3H5C4.46957 3 3.96086 3.21071 3.58579 3.58579C3.21071 3.96086 3 4.46957 3 5C3 5.53043 3.21071 6.03914 3.58579 6.41421C3.96086 6.78929 4.46957 7 5 7H20C20.2652 7 20.5196 7.10536 20.7071 7.29289C20.8946 7.48043 21 7.73478 21 8V12M21 12H18C17.4696 12 16.9609 12.2107 16.5858 12.5858C16.2107 12.9609 16 13.4696 16 14C16 14.5304 16.2107 15.0391 16.5858 15.4142C16.9609 15.7893 17.4696 16 18 16H21C21.2652 16 21.5196 15.8946 21.7071 15.7071C21.8946 15.5196 22 15.2652 22 15V13C22 12.7348 21.8946 12.4804 21.7071 12.2929C21.5196 12.1054 21.2652 12 21 12Z" stroke="#9251F4" stroke-width="1.66667" stroke-linecap="round" stroke-linejoin="round"/>
<path d="M3.10742 3.71021V17.7102C3.10742 18.2406 3.31814 18.7493 3.69321 19.1244C4.06828 19.4995 4.57699 19.7102 5.10742 19.7102H20.1074C20.3726 19.7102 20.627 19.6048 20.8145 19.4173C21.0021 19.2298 21.1074 18.9754 21.1074 18.7102V14.7102" stroke="#9251F4" stroke-width="1.66667" stroke-linecap="round" stroke-linejoin="round"/>
</svg>
