<svg width="24" height="24" viewBox="0 0 24 24" fill="none" xmlns="http://www.w3.org/2000/svg">
<path d="M2 9.50004C2.00002 8.38724 2.33759 7.30062 2.96813 6.3837C3.59867 5.46678 4.49252 4.7627 5.53161 4.36444C6.5707 3.96618 7.70616 3.89248 8.78801 4.15308C9.86987 4.41368 10.8472 4.99632 11.591 5.82404C11.6434 5.88005 11.7067 5.92471 11.7771 5.95524C11.8474 5.98577 11.9233 6.00152 12 6.00152C12.0767 6.00152 12.1526 5.98577 12.2229 5.95524C12.2933 5.92471 12.3566 5.88005 12.409 5.82404C13.1504 4.99094 14.128 4.40341 15.2116 4.13964C16.2952 3.87588 17.4335 3.94839 18.4749 4.34752C19.5163 4.74666 20.4114 5.45349 21.0411 6.37394C21.6708 7.29439 22.0053 8.3848 22 9.50004C22 11.79 20.5 13.5 19 15L13.508 20.313C13.3217 20.527 13.0919 20.699 12.834 20.8173C12.5762 20.9357 12.296 20.9979 12.0123 20.9997C11.7285 21.0015 11.4476 20.9429 11.1883 20.8278C10.9289 20.7127 10.697 20.5437 10.508 20.332L5 15C3.5 13.5 2 11.8 2 9.50004Z" stroke="#9251F4" stroke-width="1.66667" stroke-linecap="round" stroke-linejoin="round"/>
<path d="M3.21973 13H9.49973L9.99973 12L11.9997 16.5L13.9997 9.5L15.4997 13H20.7697" stroke="#9251F4" stroke-width="1.66667" stroke-linecap="round" stroke-linejoin="round"/>
</svg>
