<svg width="164" height="30" viewBox="0 0 164 30" fill="none" xmlns="http://www.w3.org/2000/svg">
<g clip-path="url(#clip0_23_2576)">
<g clip-path="url(#clip1_23_2576)">
<mask id="mask0_23_2576" style="mask-type:luminance" maskUnits="userSpaceOnUse" x="0" y="0" width="164" height="30">
<path d="M0.304688 0H163.696V29.98H0.304688V0Z" fill="white"/>
</mask>
<g mask="url(#mask0_23_2576)">
<path d="M92.0094 22.1282H95.5043V8.94529H92.0094V22.1282ZM92.0094 6.89016H95.5043V3.755H92.0094V6.89016ZM97.7565 26.4454H101.251V20.6375H101.302C102.047 21.7685 103.256 22.5135 105.105 22.5135C108.498 22.5135 110.811 19.8153 110.811 15.5499C110.811 11.4381 108.575 8.58553 105.08 8.58553C103.281 8.58553 102.047 9.43397 101.2 10.5897H101.123V8.94529H97.7565V26.4454ZM104.36 19.6099C102.279 19.6099 101.174 18.042 101.174 15.6526C101.174 13.2879 102.047 11.4126 104.232 11.4126C106.391 11.4126 107.264 13.1597 107.264 15.6526C107.264 18.1447 106.134 19.6099 104.36 19.6099ZM117.782 22.5135C121.071 22.5135 123.332 20.9201 123.332 18.2736C123.332 15.1901 120.891 14.5733 118.681 14.1108C116.805 13.7249 115.058 13.6222 115.058 12.4919C115.058 11.5408 115.957 11.0267 117.319 11.0267C118.81 11.0267 119.709 11.5408 119.863 12.9544H123.024C122.767 10.3071 120.84 8.58553 117.371 8.58553C114.364 8.58553 112 9.94737 112 12.8C112 15.6781 114.313 16.3204 116.677 16.7828C118.476 17.1426 120.146 17.2715 120.146 18.5306C120.146 19.4555 119.272 20.0469 117.731 20.0469C116.163 20.0469 115.083 19.3783 114.853 17.8621H111.615C111.82 20.663 113.953 22.5135 117.782 22.5135ZM136.601 22.1282V8.94604H133.106V16.552C133.106 18.2998 132.104 19.5327 130.459 19.5327C128.969 19.5327 128.275 18.685 128.275 17.1433V8.94529H124.806V17.7339C124.806 20.612 126.45 22.488 129.38 22.488C131.231 22.488 132.258 21.794 133.158 20.5865H133.235V22.1282H136.601ZM138.861 22.1282H142.356V14.4706C142.356 12.7228 143.307 11.5925 144.721 11.5925C146.006 11.5925 146.751 12.363 146.751 13.8538V22.1282H150.246V14.4706C150.246 12.7228 151.145 11.5925 152.609 11.5925C153.895 11.5925 154.64 12.363 154.64 13.8538V22.1282H158.135V13.2624C158.135 10.3843 156.567 8.58553 153.791 8.58553C152.122 8.58553 150.733 9.45945 149.834 10.8985H149.783C149.141 9.51042 147.804 8.58553 146.134 8.58553C144.309 8.58553 143.025 9.51041 142.305 10.7186H142.228V8.94529H138.861V22.1282ZM0.921875 22.1282H4.41679V3.755H0.921875V22.1282ZM12.9618 22.5135C17.0481 22.5135 19.849 19.481 19.849 15.5499C19.849 11.618 17.0481 8.58553 12.9618 8.58553C8.87632 8.58553 6.07544 11.618 6.07544 15.5499C6.07544 19.481 8.87632 22.5135 12.9618 22.5135ZM12.9618 19.8408C10.8033 19.8408 9.62132 18.1192 9.62132 15.5499C9.62132 12.9799 10.8033 11.2328 12.9618 11.2328C15.0949 11.2328 16.3024 12.9799 16.3024 15.5499C16.3024 18.1192 15.0949 19.8408 12.9618 19.8408ZM27.281 26.6252C29.2342 26.6252 30.9296 26.1628 32.0351 25.1345C33.0117 24.2351 33.6023 22.9759 33.6023 21.1262V8.94529H30.2363V10.3334H30.1846C29.3879 9.22785 28.1804 8.58553 26.536 8.58553C23.1948 8.58553 20.8308 11.1039 20.8308 15.0357C20.8308 19.0186 23.7089 21.3315 26.6387 21.3315C28.3086 21.3315 29.3114 20.663 30.0819 19.7898H30.1591V21.2288C30.1591 23.0276 29.208 23.978 27.2293 23.978C25.6104 23.978 24.8654 23.3357 24.5828 22.5135H21.1134C21.4732 25.0835 23.6834 26.6252 27.281 26.6252ZM27.2293 18.5306C25.4305 18.5306 24.2486 17.2198 24.2486 14.984C24.2486 12.7745 25.4305 11.3864 27.2038 11.3864C29.3114 11.3864 30.339 13.0316 30.339 14.9585C30.339 16.9117 29.4396 18.5306 27.2293 18.5306ZM42.0972 22.5135C46.1827 22.5135 48.9843 19.481 48.9843 15.5499C48.9843 11.618 46.1827 8.58553 42.0972 8.58553C38.0116 8.58553 35.21 11.618 35.21 15.5499C35.21 19.481 38.0109 22.5135 42.0972 22.5135ZM42.0972 19.8408C39.9386 19.8408 38.7566 18.1192 38.7566 15.5499C38.7566 12.9799 39.9386 11.2328 42.0972 11.2328C44.2302 11.2328 45.4377 12.9799 45.4377 15.5499C45.4377 18.1192 44.2302 19.8408 42.0972 19.8408ZM159.404 6.78149C159.404 6.18938 159.884 5.71045 160.475 5.71045H162.617C162.76 5.70667 162.902 5.73156 163.035 5.78367C163.168 5.83577 163.29 5.91403 163.392 6.01382C163.495 6.11362 163.576 6.23293 163.632 6.36471C163.687 6.49649 163.716 6.63808 163.716 6.78111C163.716 6.92415 163.687 7.06573 163.632 7.19751C163.576 7.3293 163.495 7.4486 163.392 7.5484C163.29 7.64819 163.168 7.72645 163.035 7.77856C162.902 7.83066 162.76 7.85556 162.617 7.85177H160.475C160.192 7.85157 159.919 7.73877 159.719 7.53812C159.518 7.33747 159.405 7.06535 159.404 6.78149Z" fill="#AAAAA5"/>
<path fill-rule="evenodd" clip-rule="evenodd" d="M70.1785 0C78.4567 0 85.1685 6.71102 85.1685 14.99C85.1685 23.269 78.4567 29.98 70.1785 29.98C61.8995 29.98 55.1885 23.269 55.1885 14.99C55.1885 6.71102 61.8995 0 70.1785 0ZM69.6366 1.122C67.9262 1.36184 66.2983 2.73642 65.0347 5.03439C64.6674 5.70145 64.3369 6.43746 64.0483 7.23267C65.7669 6.80096 67.6549 6.54613 69.6366 6.50716V1.122ZM62.7817 7.59318C63.1154 6.52673 63.5517 5.4951 64.0843 4.51274C64.7109 3.3735 65.4551 2.38941 66.2923 1.63391C64.0453 2.29005 61.9998 3.50164 60.3446 5.15687C58.6894 6.81209 57.4778 8.8576 56.8216 11.1046C57.5779 10.2667 58.5612 9.52315 59.7005 8.89656C60.6828 8.3634 61.7144 7.92665 62.7809 7.59243L62.7817 7.59318ZM62.4219 8.85984C61.9894 10.5784 61.7346 12.4664 61.6949 14.4481H56.3097C56.5503 12.7378 57.9249 11.1098 60.2229 9.84618C60.8899 9.47893 61.6267 9.1484 62.4219 8.85984ZM62.7794 14.4481C62.8244 12.2858 63.1354 10.2554 63.6503 8.46185C65.4439 7.94695 67.4743 7.63591 69.6366 7.59094V9.93162C69.2356 10.9551 68.6273 11.8847 67.8499 12.6619C67.0726 13.4392 66.1429 14.0473 65.1194 14.4481H62.7794ZM61.6956 15.5319H56.3097C56.5503 17.2422 57.9249 18.8702 60.2229 20.1338C60.8899 20.5011 61.6259 20.8316 62.4212 21.1202C61.9894 19.4016 61.7346 17.5136 61.6956 15.5319ZM63.6503 21.5181C63.1354 19.7246 62.8236 17.6942 62.7794 15.5319H65.1194C66.1429 15.9327 67.0726 16.5408 67.8499 17.3181C68.6273 18.0953 69.2356 19.0249 69.6366 20.0484V22.3891C67.4743 22.3441 65.4439 22.0331 63.6503 21.5181ZM62.7809 22.3876C61.7144 22.0533 60.6828 21.6166 59.7005 21.0834C58.5612 20.4569 57.5779 19.7133 56.8224 18.8754C57.4785 21.1223 58.6899 23.1678 60.345 24.823C62.0001 26.4782 64.0455 27.6898 66.2923 28.3461C65.4544 27.5906 64.7109 26.6072 64.0843 25.468C63.5517 24.4857 63.1147 23.454 62.7809 22.3876ZM69.6366 28.858C67.9262 28.6182 66.2983 27.2436 65.0347 24.9456C64.6674 24.2786 64.3369 23.5418 64.0483 22.7473C65.7669 23.179 67.6549 23.4339 69.6366 23.4728V28.858ZM74.0639 28.3461C74.9018 27.5906 75.6453 26.6072 76.2719 25.468C76.8048 24.4857 77.2413 23.4541 77.5753 22.3876C78.6418 22.0533 79.6734 21.6166 80.6557 21.0834C81.795 20.4569 82.7791 19.7133 83.5346 18.8754C82.8784 21.1224 81.6668 23.1678 80.0115 24.8231C78.3563 26.4783 76.3109 27.6899 74.0639 28.3461ZM76.3086 22.7473C76.0368 23.5043 75.7071 24.2393 75.3223 24.9456C74.0586 27.2436 72.43 28.6182 70.7204 28.858V23.4728C72.7013 23.4339 74.5893 23.179 76.3086 22.7473ZM77.9351 21.1202C78.6921 20.8488 79.4271 20.5193 80.1333 20.1346C82.4321 18.8702 83.8059 17.2415 84.0465 15.5319H78.6613C78.6216 17.5136 78.3668 19.4016 77.9351 21.1202ZM77.5775 15.5319C77.5326 17.6942 77.2215 19.7246 76.7059 21.5181C74.9123 22.0331 72.8827 22.3441 70.7204 22.3891V20.0506C71.1211 19.0265 71.7294 18.0964 72.5069 17.3186C73.2844 16.5408 74.2144 15.9323 75.2383 15.5311L77.5775 15.5319ZM78.6613 14.4481H84.0465C83.8059 12.7378 82.4321 11.1098 80.1333 9.84618C79.4272 9.46103 78.6922 9.13126 77.9351 8.85984C78.3668 10.5784 78.6216 12.4664 78.6613 14.4481ZM76.7059 8.46185C77.2215 10.2554 77.5326 12.2858 77.5775 14.4481H75.2383C74.2144 14.0471 73.2845 13.4386 72.507 12.661C71.7295 11.8834 71.1212 10.9534 70.7204 9.92938V7.59094C72.8827 7.63591 74.9123 7.94695 76.7059 8.46185ZM77.5753 7.59243C78.6418 7.9267 79.6734 8.36345 80.6557 8.89656C81.795 9.52315 82.7791 10.2667 83.5346 11.1046C82.8784 8.85763 81.6668 6.81215 80.0115 5.15694C78.3563 3.50173 76.3109 2.29011 74.0639 1.63391C74.9018 2.38941 75.6453 3.37275 76.2719 4.51199C76.8048 5.49431 77.2413 6.52594 77.5753 7.59243ZM70.7204 1.122C72.43 1.36184 74.0586 2.73642 75.3223 5.03439C75.6888 5.70145 76.0201 6.43746 76.3086 7.23267C74.5893 6.80096 72.7013 6.54613 70.7204 6.50716V1.122Z" fill="#AAAAA5"/>
</g>
</g>
</g>
<defs>
<clipPath id="clip0_23_2576">
<rect width="164" height="29.98" fill="white"/>
</clipPath>
<clipPath id="clip1_23_2576">
<rect width="163.391" height="29.98" fill="white" transform="translate(0.304688)"/>
</clipPath>
</defs>
</svg>
