<svg width="122" height="30" viewBox="0 0 122 30" fill="none" xmlns="http://www.w3.org/2000/svg">
<g clip-path="url(#clip0_23_2540)">
<g clip-path="url(#clip1_23_2540)">
<mask id="mask0_23_2540" style="mask-type:luminance" maskUnits="userSpaceOnUse" x="0" y="0" width="122" height="30">
<path d="M0 0.103088H122V29.8769H0V0.103088Z" fill="white"/>
</mask>
<g mask="url(#mask0_23_2540)">
<path d="M35.7848 21.1285H44.4649V18.5142H38.8703V8.66707H35.7855L35.7848 21.1285ZM49.6063 19.3856C48.3696 19.3856 47.7248 18.3051 47.7248 16.6842C47.7248 15.0634 48.3696 13.9654 49.6071 13.9654C50.8445 13.9654 51.5068 15.0634 51.5068 16.6842C51.5068 18.3051 50.8438 19.3856 49.6063 19.3856ZM49.6245 21.4074C52.5002 21.4074 54.3825 19.3682 54.3825 16.6842C54.3825 14.0002 52.5002 11.9611 49.6245 11.9611C46.7662 11.9611 44.8491 14.0002 44.8491 16.6842C44.8491 19.3682 46.7662 21.4074 49.6245 21.4074ZM59.3598 24.2126C60.6844 24.2126 61.8521 23.9163 62.6364 23.2192C63.3509 22.5743 63.8215 21.5983 63.8215 20.2563V12.2043H61.1027V13.1629H61.0678C60.5449 12.4135 59.7432 11.9429 58.5581 11.9429C56.3447 11.9429 54.8109 13.7903 54.8109 16.4046C54.8109 19.1409 56.6758 20.6398 58.6801 20.6398C59.7607 20.6398 60.4404 20.2041 60.9632 19.6115H61.0329V20.5003C61.0329 21.5809 60.5275 22.2083 59.3249 22.2083C58.3838 22.2083 57.9132 21.8075 57.7564 21.3369H55.0027C55.2815 23.2018 56.9024 24.2126 59.3598 24.2126ZM59.3424 18.5309C58.2792 18.5309 57.5821 17.6595 57.5821 16.3175C57.5821 14.9581 58.2792 14.0866 59.3424 14.0866C60.5275 14.0866 61.1549 15.0975 61.1549 16.3001C61.1549 17.5549 60.5798 18.5309 59.3424 18.5309ZM69.4125 19.3856C68.175 19.3856 67.5302 18.3051 67.5302 16.6842C67.5302 15.0634 68.175 13.9654 69.4125 13.9654C70.6499 13.9654 71.3122 15.0634 71.3122 16.6842C71.3122 18.3051 70.6499 19.3856 69.4125 19.3856ZM69.4299 21.4074C72.3056 21.4074 74.1872 19.3682 74.1872 16.6842C74.1872 14.0002 72.3056 11.9611 69.4299 11.9611C66.5716 11.9611 64.6544 14.0002 64.6544 16.6842C64.6544 19.3682 66.5716 21.4074 69.4299 21.4074ZM75.0172 21.1285H77.858V12.2051H75.0172V21.1285ZM75.0172 10.9676H77.858V8.66707H75.0172V10.9676ZM79.0904 24.0732H81.9313V20.2041H81.9661C82.5238 20.9535 83.343 21.4066 84.4932 21.4066C86.8287 21.4066 88.3798 19.5592 88.3798 16.6661C88.3798 13.9821 86.9333 11.9429 84.563 11.9429C83.343 11.9429 82.4715 12.4832 81.8615 13.2849H81.8092V12.2043H79.0904V24.0732ZM83.7613 19.2106C82.5413 19.2106 81.8441 18.2172 81.8441 16.7706C81.8441 15.3241 82.4715 14.2261 83.709 14.2261C84.929 14.2261 85.5041 15.2369 85.5041 16.7706C85.5041 18.2869 84.8418 19.2106 83.7613 19.2106ZM93.0049 21.4066C95.3404 21.4066 97.0658 20.3958 97.0658 18.4438C97.0658 16.1606 95.2184 15.7598 93.6498 15.4983C92.5169 15.2892 91.5061 15.2021 91.5061 14.5746C91.5061 14.0169 92.0464 13.7555 92.7435 13.7555C93.5278 13.7555 94.0681 13.9995 94.1726 14.8012H96.7869C96.6475 13.0409 95.2881 11.9429 92.7609 11.9429C90.6521 11.9429 88.9092 12.9189 88.9092 14.8012C88.9092 16.8926 90.5649 17.3109 92.1161 17.5723C93.3012 17.7815 94.3818 17.8686 94.3818 18.6703C94.3818 19.2455 93.8415 19.5592 92.9875 19.5592C92.0464 19.5592 91.4538 19.1235 91.3492 18.2346H88.6652C88.7524 20.2041 90.3906 21.4066 93.0049 21.4066ZM100.925 21.3899C102.162 21.3899 102.946 20.9019 103.591 20.0305H103.644V21.1285H106.362V12.2051H103.522V17.1896C103.522 18.2528 102.929 18.9848 101.953 18.9848C101.047 18.9848 100.611 18.4438 100.611 17.4685V12.2051H97.7876V18.0611C97.7876 20.0479 98.8682 21.3899 100.925 21.3899ZM107.598 21.1278H110.439V16.1258C110.439 15.0626 110.962 14.3132 111.851 14.3132C112.705 14.3132 113.106 14.8709 113.106 15.8295V21.1278H115.947V16.1258C115.947 15.0626 116.452 14.3132 117.358 14.3132C118.212 14.3132 118.613 14.8709 118.613 15.8295V21.1278H121.454V15.3241C121.454 13.3198 120.443 11.9429 118.422 11.9429C117.271 11.9429 116.313 12.4309 115.616 13.5115H115.581C115.128 12.5529 114.239 11.9429 113.071 11.9429C111.781 11.9429 110.927 12.5529 110.37 13.4766H110.317V12.2043H107.598V21.1278ZM18.4528 1.53878L15.5967 0.773376L13.1901 9.75635L11.0166 1.64553L8.16047 2.41239L10.5082 11.1739L4.66023 5.32659L2.56953 7.41729L8.98397 13.8317L0.995874 11.6909L0.230469 14.547L8.95855 16.8854C8.7574 16.0185 8.75448 15.1173 8.95001 14.2492C9.14554 13.381 9.53448 12.5681 10.0878 11.8711C10.6412 11.1742 11.3447 10.6111 12.146 10.2238C12.9472 9.83655 13.8256 9.6351 14.7155 9.63448C15.6054 9.63387 16.484 9.8341 17.2858 10.2202C18.0876 10.6064 18.7919 11.1685 19.3462 11.8647C19.9006 12.5609 20.2906 13.3733 20.4874 14.2412C20.6841 15.1091 20.6824 16.0102 20.4825 16.8774L28.4146 19.0029L29.1793 16.1468L20.4171 13.7991L28.4052 11.6582L27.6405 8.80214L18.8783 11.1499L24.7256 5.30263L22.6349 3.2112L16.3098 9.53632L18.452 1.53951L18.4528 1.53878Z" fill="#AAAAA5"/>
<path d="M20.4748 16.9108C20.2334 17.9285 19.7259 18.8638 19.0042 19.6209L24.7499 25.3672L26.8413 23.2758L20.4748 16.9108ZM18.9461 19.6812C18.2181 20.4257 17.3062 20.9645 16.3028 21.2432L18.3942 29.0469L21.2503 28.2815L18.9461 19.6812ZM16.1968 21.2715C15.7142 21.3954 15.2179 21.4578 14.7197 21.4574C14.1868 21.4579 13.6562 21.3863 13.1424 21.2447L11.0496 29.0563L13.9057 29.8217L16.1968 21.2715ZM13.0415 21.2163C12.0527 20.9234 11.1577 20.3769 10.4454 19.6311L4.68522 25.3912L6.77592 27.4826L13.0415 21.2163ZM10.3974 19.5795C9.694 18.8277 9.19955 17.9049 8.9632 16.9028L1.00488 19.0356L1.77029 21.8917L10.3974 19.5795Z" fill="#AAAAA5"/>
</g>
</g>
</g>
<defs>
<clipPath id="clip0_23_2540">
<rect width="122" height="29.98" fill="white"/>
</clipPath>
<clipPath id="clip1_23_2540">
<rect width="122" height="29.7738" fill="white" transform="translate(0 0.103088)"/>
</clipPath>
</defs>
</svg>
