<svg width="122" height="30" viewBox="0 0 122 30" fill="none" xmlns="http://www.w3.org/2000/svg">
<g clip-path="url(#clip0_23_2567)">
<g clip-path="url(#clip1_23_2567)">
<mask id="mask0_23_2567" style="mask-type:luminance" maskUnits="userSpaceOnUse" x="0" y="0" width="122" height="30">
<path d="M0 0.0139771H122V29.9661H0V0.0139771Z" fill="white"/>
</mask>
<g mask="url(#mask0_23_2567)">
<path d="M35.5264 21.0491H44.2585V18.4192H38.6304V8.51306H35.5264V21.0491ZM49.4314 19.2958C48.1866 19.2958 47.5379 18.2088 47.5379 16.5782C47.5379 14.9476 48.1866 13.8431 49.4314 13.8431C50.6763 13.8431 51.3425 14.9476 51.3425 16.5782C51.3425 18.2088 50.6763 19.2958 49.4314 19.2958ZM49.449 21.3296C52.3419 21.3296 54.2355 19.2783 54.2355 16.5782C54.2355 13.8781 52.3419 11.8268 49.449 11.8268C46.5736 11.8268 44.645 13.8781 44.645 16.5782C44.645 19.2783 46.5736 21.3296 49.449 21.3296ZM59.2426 24.1517C60.5751 24.1517 61.7498 23.8544 62.5388 23.1531C63.2576 22.5036 63.731 21.5225 63.731 20.1725V12.0715H60.9959V13.0358H60.9608C60.4348 12.2819 59.6283 11.8085 58.4361 11.8085C56.2094 11.8085 54.6665 13.6663 54.6665 16.2962C54.6665 19.0489 56.5425 20.5567 58.5588 20.5567C59.6458 20.5567 60.3296 20.1184 60.8556 19.523H60.9257V20.4172C60.9257 21.5042 60.4173 22.1354 59.2075 22.1354C58.2607 22.1354 57.7874 21.7322 57.6296 21.2588H54.8594C55.1399 23.1341 56.7704 24.1517 59.2426 24.1517ZM59.225 18.4367C58.1555 18.4367 57.4542 17.5601 57.4542 16.2093C57.4542 14.8417 58.1555 13.9651 59.225 13.9651C60.4173 13.9651 61.0485 14.982 61.0485 16.1918C61.0485 17.4549 60.4699 18.4367 59.225 18.4367ZM69.3554 19.2958C68.1106 19.2958 67.4619 18.2088 67.4619 16.5782C67.4619 14.9476 68.1106 13.8431 69.3554 13.8431C70.6003 13.8431 71.2665 14.9476 71.2665 16.5782C71.2665 18.2088 70.6003 19.2958 69.3554 19.2958ZM69.373 21.3296C72.2659 21.3296 74.1595 19.2783 74.1595 16.5782C74.1595 13.8781 72.2659 11.8268 69.373 11.8268C66.4976 11.8268 64.5689 13.8781 64.5689 16.5782C64.5689 19.2783 66.4976 21.3296 69.373 21.3296ZM74.9937 21.0491H77.8516V12.0722H74.9937V21.0491ZM74.9937 10.8274H77.8516V8.51306H74.9937V10.8274ZM79.0913 24.0122H81.9492V20.1184H81.9843C82.5453 20.8723 83.3694 21.3282 84.5265 21.3282C86.876 21.3282 88.4364 19.4704 88.4364 16.5599C88.4364 13.8591 86.9811 11.8078 84.5967 11.8078C83.3694 11.8078 82.4927 12.352 81.8791 13.1586H81.8265V12.0715H79.0913V24.0107V24.0122ZM83.7901 19.1198C82.5628 19.1198 81.8615 18.1211 81.8615 16.6651C81.8615 15.2106 82.4927 14.1061 83.7376 14.1061C84.9649 14.1061 85.5434 15.123 85.5434 16.6659C85.5434 18.1905 84.8772 19.1198 83.7901 19.1198ZM93.0899 21.3289C95.4393 21.3289 97.1751 20.312 97.1751 18.3483C97.1751 16.0515 95.3166 15.6482 93.7386 15.3852C92.599 15.1748 91.5821 15.0879 91.5821 14.4567C91.5821 13.8957 92.1256 13.6327 92.8269 13.6327C93.6159 13.6327 94.1594 13.8774 94.2646 14.6847H96.8946C96.7543 12.9131 95.3867 11.8085 92.8444 11.8085C90.723 11.8085 88.9697 12.7911 88.9697 14.6839C88.9697 16.7879 90.6353 17.2094 92.1957 17.4724C93.388 17.6828 94.475 17.7697 94.475 18.577C94.475 19.1548 93.9315 19.4711 93.0724 19.4711C92.1256 19.4711 91.5295 19.0328 91.4243 18.1379H88.7242C88.8119 20.1191 90.46 21.3289 93.0899 21.3289ZM101.056 21.3121C102.301 21.3121 103.09 20.8212 103.739 19.9445H103.792V21.0491H106.527V12.0722H103.669V17.0867C103.669 18.1562 103.073 18.8926 102.091 18.8926C101.179 18.8926 100.741 18.349 100.741 17.3672V12.0722H97.9005V17.9633C97.9005 19.9621 98.9875 21.3121 101.056 21.3121ZM107.77 21.0491H110.628V16.0164C110.628 14.9476 111.154 14.1937 112.048 14.1937C112.907 14.1937 113.31 14.7541 113.31 15.7184V21.0491H116.168V16.0164C116.168 14.9476 116.677 14.1937 117.589 14.1937C118.448 14.1937 118.851 14.7541 118.851 15.7184V21.0491H121.709V15.2106C121.709 13.1944 120.692 11.8085 118.658 11.8085C117.501 11.8085 116.537 12.2994 115.835 13.3865H115.8C115.344 12.4222 114.45 11.8085 113.275 11.8085C111.978 11.8085 111.119 12.4222 110.558 13.3522H110.505V12.0722H107.77V21.0491Z" fill="#AAAAA5"/>
<path fill-rule="evenodd" clip-rule="evenodd" d="M6.32203 2.85725C5.27798 3.58759 4.33328 4.45052 3.51165 5.42436C6.86482 5.11315 11.1239 5.62161 16.0689 8.09448C21.3499 10.7347 25.6024 10.8238 28.5611 10.2532C28.2946 9.44603 27.9577 8.66379 27.5544 7.9155C24.1662 8.27347 19.8231 7.80008 14.7627 5.26949C11.5483 3.6623 8.71455 3.00043 6.32203 2.85725ZM25.5761 5.09854C24.207 3.56452 22.5288 2.33755 20.6518 1.49825C18.7748 0.658948 16.7414 0.226313 14.6852 0.22877C13.4141 0.22877 12.181 0.39095 11.0055 0.696315C12.5981 1.13026 14.2886 1.76582 16.0682 2.65562C19.7742 4.50827 22.9739 5.10512 25.5754 5.09927L25.5761 5.09854ZM29.1945 13.106C25.6192 13.8117 20.6822 13.667 14.7627 10.7069C9.22885 7.94034 4.8237 7.97467 1.8526 8.63508C1.69918 8.66869 1.55015 8.70521 1.40405 8.74174C1.01099 9.59611 0.701977 10.4867 0.481375 11.4009C0.719531 11.3373 0.964992 11.2767 1.21922 11.2212C4.82297 10.4198 9.91555 10.4541 16.0696 13.5319C21.6042 16.2992 26.0086 16.2641 28.9797 15.6037C29.0801 15.5817 29.1802 15.5583 29.2799 15.5336C29.3179 14.7234 29.2893 13.9115 29.1945 13.106ZM28.8029 18.6172C25.2627 19.2367 20.4689 18.9985 14.7627 16.1458C9.22885 13.3785 4.8237 13.4135 1.8526 14.0732C1.19365 14.2193 0.600453 14.3983 0.0773869 14.5868L0.0751953 14.8388C0.0751953 22.9083 6.61644 29.4496 14.686 29.4496C21.4486 29.4496 27.138 24.8545 28.8029 18.6172Z" fill="#AAAAA5"/>
</g>
</g>
</g>
<defs>
<clipPath id="clip0_23_2567">
<rect width="122" height="29.98" fill="white"/>
</clipPath>
<clipPath id="clip1_23_2567">
<rect width="122" height="29.9521" fill="white" transform="translate(0 0.0139771)"/>
</clipPath>
</defs>
</svg>
