<svg width="120" height="30" viewBox="0 0 120 30" fill="none" xmlns="http://www.w3.org/2000/svg">
<g clip-path="url(#clip0_23_2558)">
<g clip-path="url(#clip1_23_2558)">
<mask id="mask0_23_2558" style="mask-type:luminance" maskUnits="userSpaceOnUse" x="0" y="0" width="120" height="30">
<path d="M0 0.0887451H120V29.9112H0V0.0887451Z" fill="white"/>
</mask>
<g mask="url(#mask0_23_2558)">
<path d="M36.1133 20.9311H44.5999V18.3749H39.1296V8.74652H36.1133V20.9311ZM49.6278 19.227C48.4179 19.227 47.7874 18.1704 47.7874 16.5856C47.7874 15.0007 48.4179 13.9271 49.6278 13.9271C50.8378 13.9271 51.4854 15.0007 51.4854 16.5856C51.4854 18.1704 50.8378 19.227 49.6278 19.227ZM49.6449 21.2045C52.4567 21.2045 54.2972 19.2107 54.2972 16.5856C54.2972 13.9619 52.4567 11.9681 49.6449 11.9681C46.8501 11.9681 44.9755 13.9619 44.9755 16.5856C44.9755 19.2107 46.8501 21.2045 49.6449 21.2045ZM59.1646 23.9475C60.4598 23.9475 61.6016 23.6578 62.3684 22.9761C63.0671 22.3456 63.5272 21.3913 63.5272 20.0791V12.2059H60.8688V13.1432H60.8347C60.3235 12.4104 59.5396 11.9503 58.3807 11.9503C56.2165 11.9503 54.7168 13.7567 54.7168 16.3129C54.7168 18.9884 56.5403 20.454 58.5 20.454C59.5566 20.454 60.2212 20.0279 60.7325 19.4485H60.8006V20.3176C60.8006 21.3742 60.3064 21.9877 59.1306 21.9877C58.2103 21.9877 57.7502 21.5958 57.5968 21.1356H54.9043C55.1769 22.9591 56.7618 23.9475 59.1646 23.9475ZM59.1476 18.392C58.1081 18.392 57.4264 17.5399 57.4264 16.2277C57.4264 14.8985 58.1081 14.0464 59.1476 14.0464C60.3064 14.0464 60.9199 15.0348 60.9199 16.2107C60.9199 17.4376 60.3575 18.392 59.1476 18.392ZM68.9933 19.227C67.7833 19.227 67.1528 18.1704 67.1528 16.5856C67.1528 15.0007 67.7833 13.9271 68.9933 13.9271C70.2032 13.9271 70.8508 15.0007 70.8508 16.5856C70.8508 18.1704 70.2032 19.227 68.9933 19.227ZM69.0103 21.2045C71.8222 21.2045 73.6626 19.2107 73.6626 16.5856C73.6626 13.9619 71.8222 11.9681 69.0103 11.9681C66.2155 11.9681 64.341 13.9619 64.341 16.5856C64.341 19.2107 66.2155 21.2045 69.0103 21.2045ZM74.4735 20.9311H77.2513V12.2059H74.4735V20.9311ZM74.4735 10.996H77.2513V8.74652H74.4735V10.996ZM78.457 23.8118H81.2347V20.0272H81.2688C81.8141 20.76 82.6151 21.2031 83.7398 21.2031C86.0233 21.2031 87.54 19.3967 87.54 16.5678C87.54 13.9434 86.1256 11.9496 83.808 11.9496C82.6151 11.9496 81.763 12.4779 81.1665 13.2618H81.1154V12.2052H78.457V23.8118ZM83.0241 19.0566C81.8312 19.0566 81.1495 18.0852 81.1495 16.6708C81.1495 15.2563 81.763 14.1827 82.9729 14.1827C84.1658 14.1827 84.7282 15.1711 84.7282 16.6708C84.7282 18.1534 84.0806 19.0566 83.0241 19.0566ZM92.0624 21.2038C94.3459 21.2038 96.033 20.2154 96.033 18.3068C96.033 16.0743 94.2267 15.6824 92.6929 15.4268C91.5852 15.2223 90.5968 15.1371 90.5968 14.5236C90.5968 13.9782 91.1251 13.7226 91.8068 13.7226C92.5736 13.7226 93.1019 13.9612 93.2042 14.7451H95.7604C95.6241 13.0239 94.2948 11.9503 91.8238 11.9503C89.7618 11.9503 88.0577 12.9046 88.0577 14.7451C88.0577 16.7901 89.6766 17.1991 91.1933 17.4547C92.3521 17.6592 93.4087 17.7444 93.4087 18.5283C93.4087 19.0907 92.8804 19.3974 92.0453 19.3974C91.1251 19.3974 90.5457 18.9714 90.4435 18.1023H87.8191C87.9043 20.0279 89.5062 21.2038 92.0624 21.2038ZM99.8063 21.1868C101.016 21.1868 101.783 20.7096 102.414 19.8575H102.465V20.9311H105.123V12.2059H102.345V17.0798C102.345 18.1193 101.766 18.835 100.812 18.835C99.9256 18.835 99.4995 18.3068 99.4995 17.3524V12.2059H96.7388V17.9318C96.7388 19.8746 97.7954 21.1868 99.8063 21.1868ZM106.331 20.9311H109.109V16.0402C109.109 15.0007 109.62 14.2679 110.489 14.2679C111.324 14.2679 111.716 14.8133 111.716 15.7505V20.9311H114.494V16.0402C114.494 15.0007 114.988 14.2679 115.874 14.2679C116.709 14.2679 117.101 14.8133 117.101 15.7505V20.9311H119.879V15.2563C119.879 13.2966 118.891 11.9503 116.914 11.9503C115.789 11.9503 114.852 12.4275 114.17 13.484H114.136C113.693 12.5468 112.824 11.9503 111.682 11.9503C110.421 11.9503 109.586 12.5468 109.041 13.45H108.989V12.2059H106.331V20.9311Z" fill="#AAAAA5"/>
<path fill-rule="evenodd" clip-rule="evenodd" d="M14.6868 0.771851C22.6835 0.771851 29.1664 7.25469 29.1664 15.2507C29.1664 23.2474 22.6835 29.7302 14.6868 29.7302C6.69014 29.7302 0.208008 23.2474 0.208008 15.2507C0.208008 7.25398 6.69085 0.771851 14.6868 0.771851ZM28.6104 15.2507C28.6104 7.56073 22.3761 1.32783 14.6868 1.32783C14.0669 1.32783 13.4563 1.3683 12.857 1.44641C13.2476 1.41229 13.6394 1.39523 14.0314 1.39528C21.3791 1.39528 27.3358 7.35268 27.3358 14.7004C27.3358 22.0481 21.3784 28.0047 14.0314 28.0047C7.07499 28.0047 1.3654 22.6651 0.776765 15.862C1.09629 23.2679 7.20209 29.1742 14.6868 29.1742C22.3768 29.1742 28.6104 22.9399 28.6104 15.2507ZM26.7798 14.6997C26.7798 7.65871 21.0724 1.95126 14.0314 1.95126C13.4598 1.95126 12.8968 1.98889 12.345 2.06203C12.6845 2.03363 13.0281 2.01871 13.3753 2.01871C20.0748 2.01871 25.5053 7.44925 25.5053 14.1487C25.5053 20.8474 20.0748 26.2779 13.3753 26.2779C7.04162 26.2779 1.84114 21.4232 1.29369 15.2315C1.57203 22.0261 7.16801 27.4488 14.0314 27.4488C21.0724 27.4488 26.7798 21.7399 26.7798 14.6997ZM13.3753 2.5754C19.768 2.5754 24.9493 7.7567 24.9493 14.1494C24.9493 20.5413 19.768 25.7233 13.3753 25.7233C7.13179 25.7233 2.0428 20.7785 1.8099 14.5917C2.31191 20.1756 7.00469 24.5524 12.72 24.5524C18.7697 24.5524 23.674 19.6481 23.674 13.5984C23.674 7.54865 18.7697 2.64286 12.72 2.64286C12.4068 2.64286 12.0965 2.65635 11.7905 2.68191C12.3088 2.6109 12.8378 2.5754 13.3753 2.5754ZM23.1195 13.5976C23.1195 7.85469 18.4636 3.19883 12.7207 3.19883C12.235 3.19883 11.7578 3.23221 11.2899 3.29611C11.5455 3.27623 11.8033 3.26629 12.0639 3.26629C17.4653 3.26629 21.8435 7.64451 21.8435 13.0459C21.8435 18.4474 17.4653 22.8256 12.0639 22.8256C6.97984 22.8256 2.80256 18.9465 2.32895 13.9875C2.53345 19.5494 7.10765 23.9965 12.7207 23.9965C18.4636 23.9965 23.1195 19.3406 23.1195 13.5976ZM12.0632 3.82226C17.1578 3.82226 21.2868 7.95197 21.2868 13.0459C21.2868 18.1406 17.1578 22.2696 12.0632 22.2696C7.06931 22.2696 3.0028 18.3018 2.84375 13.3463C3.27191 17.699 6.94221 21.1001 11.4071 21.1001C16.1602 21.1001 20.013 17.2466 20.013 12.4942C20.013 7.74179 16.1602 3.88901 11.4071 3.88901C11.1898 3.88901 10.9739 3.89753 10.7595 3.91315C11.1855 3.8528 11.6208 3.82226 12.0632 3.82226ZM19.457 12.4935C19.457 8.04854 15.8535 4.44428 11.4078 4.44428C11.0016 4.44428 10.6033 4.4741 10.2135 4.53232C10.391 4.51954 10.5706 4.51315 10.7517 4.51315C14.8558 4.51315 18.1817 7.83978 18.1817 11.9432C18.1817 16.0466 14.8551 19.3726 10.7517 19.3726C6.90671 19.3726 3.74339 16.4521 3.36067 12.7079C3.47428 17.0549 7.03381 20.5434 11.4078 20.5434C15.8527 20.5434 19.457 16.9392 19.457 12.4935ZM10.7517 5.06984C14.5484 5.06984 17.6258 8.14723 17.6258 11.9432C17.6258 15.7399 14.5484 18.818 10.7524 18.818C7.00327 18.818 3.95641 15.818 3.87901 12.0881C4.05734 13.6765 4.83695 15.1364 6.0578 16.1681C7.27865 17.1999 8.84813 17.7251 10.4441 17.6361C12.04 17.547 13.5413 16.8504 14.6398 15.6893C15.7383 14.5282 16.3507 12.9906 16.3512 11.3922C16.3511 10.5377 16.176 9.69221 15.8366 8.90797C15.4972 8.12373 15.0007 7.41735 14.3777 6.83239C13.7548 6.24744 13.0186 5.79631 12.2146 5.50685C11.4106 5.21739 10.5558 5.09573 9.70292 5.14937C10.05 5.09631 10.4006 5.06973 10.7517 5.06984ZM15.7959 11.3922C15.7961 10.5651 15.6162 9.7478 15.2687 8.99716C14.9213 8.24653 14.4146 7.58051 13.7839 7.04535C13.1532 6.51019 12.4136 6.11872 11.6165 5.89811C10.8193 5.6775 9.98362 5.63304 9.16753 5.76783C10.1559 5.71502 11.1381 5.95203 11.9935 6.44975C12.849 6.94748 13.5405 7.68423 13.983 8.56952C14.4255 9.45481 14.5998 10.4501 14.4845 11.4331C14.3692 12.416 13.9692 13.3439 13.3338 14.1028C12.6984 14.8616 11.8552 15.4183 10.9077 15.7045C9.96031 15.9907 8.9499 15.9939 8.00065 15.7138C7.05139 15.4337 6.20463 14.8824 5.56438 14.1276C4.92412 13.3729 4.51826 12.4476 4.39665 11.4653C4.40634 12.977 5.01614 14.4229 6.09189 15.4849C6.62455 16.0108 7.25557 16.4266 7.94892 16.7086C8.64227 16.9906 9.38437 17.1332 10.1329 17.1284C10.8813 17.1236 11.6216 16.9714 12.3112 16.6806C13.0009 16.3897 13.6265 15.9658 14.1524 15.4332C14.6783 14.9005 15.0941 14.2695 15.3761 13.5761C15.6581 12.8828 15.8007 12.1407 15.7959 11.3922ZM9.43949 6.31599C10.3353 6.31586 11.211 6.58161 11.9557 7.07958C12.7003 7.57755 13.2804 8.28534 13.6225 9.11328C13.9645 9.94121 14.0532 10.852 13.8771 11.7304C13.7011 12.6088 13.2684 13.4151 12.6337 14.0473C11.999 14.6795 11.1909 15.1091 10.3119 15.2816C9.43287 15.4542 8.5224 15.362 7.69581 15.0167C6.86922 14.6714 6.16372 14.0885 5.66868 13.3419C5.17364 12.5953 4.91133 11.7185 4.91499 10.8227C5.01818 11.5717 5.33647 12.2745 5.83127 12.8461C6.32607 13.4177 6.9761 13.8334 7.70251 14.0428C8.42892 14.2522 9.20049 14.2463 9.92361 14.0258C10.6467 13.8054 11.2903 13.3798 11.7764 12.8007C12.2624 12.2217 12.5699 11.514 12.6616 10.7636C12.7534 10.0132 12.6254 9.25229 12.2932 8.5732C11.961 7.89411 11.4389 7.32601 10.7901 6.93782C10.1414 6.54964 9.394 6.35805 8.63854 6.38629C8.89842 6.34014 9.16611 6.31528 9.43949 6.31528V6.31599ZM12.1335 10.2888C12.1335 9.40047 11.7806 8.54855 11.1524 7.92043C10.5243 7.2923 9.67241 6.93942 8.7841 6.93942C7.8958 6.93942 7.04388 7.2923 6.41576 7.92043C5.78763 8.54855 5.43475 9.40047 5.43475 10.2888C5.43475 11.1771 5.78763 12.029 6.41576 12.6571C7.04388 13.2852 7.8958 13.6381 8.7841 13.6381C9.67241 13.6381 10.5243 13.2852 11.1524 12.6571C11.7806 12.029 12.1335 11.1771 12.1335 10.2888Z" fill="#AAAAA5"/>
</g>
</g>
</g>
<defs>
<clipPath id="clip0_23_2558">
<rect width="120" height="30" fill="white"/>
</clipPath>
<clipPath id="clip1_23_2558">
<rect width="120" height="29.8225" fill="white" transform="translate(0 0.0887451)"/>
</clipPath>
</defs>
</svg>
