<svg width="105" height="30" viewBox="0 0 105 30" fill="none" xmlns="http://www.w3.org/2000/svg">
<g clip-path="url(#clip0_23_2535)">
<path d="M35.0724 19.0909V7.42365H33.1592V19.0909H35.0724ZM36.243 15.2018C36.243 17.5855 37.8426 19.2791 40.2733 19.2791C42.704 19.2791 44.3035 17.5855 44.3035 15.2018C44.3035 12.8182 42.704 11.1246 40.274 11.1246C37.8426 11.1246 36.243 12.8182 36.243 15.2018ZM38.1726 15.2018C38.1726 13.8061 39.003 12.8339 40.2733 12.8339C41.5435 12.8339 42.3746 13.8061 42.3746 15.2018C42.3746 16.5818 41.5435 17.5698 40.2733 17.5698C39.003 17.5698 38.1726 16.5818 38.1726 15.2018ZM44.9471 15.045C44.9471 17.3032 46.4062 18.9341 48.5853 18.9341C49.7144 18.9341 50.6867 18.4786 51.1728 17.7266V19.0432C51.1728 20.3141 50.373 21.1602 49.0401 21.1602C47.8483 21.1602 47.0328 20.5807 46.923 19.5607H44.9942C45.2451 21.5843 46.7976 22.9016 48.9303 22.9016C51.4394 22.9016 53.039 21.255 53.039 18.6982V11.3434H51.3453L51.2362 12.3941C50.7658 11.5793 49.7928 11.0925 48.648 11.0925C46.4369 11.0925 44.9471 12.7711 44.9471 15.045ZM46.8917 14.9973C46.8917 13.7114 47.7071 12.7711 48.9146 12.7711C50.2319 12.7711 51.1101 13.7271 51.1101 14.9973C51.1101 16.2839 50.2319 17.2711 48.9146 17.2711C47.7228 17.2711 46.8917 16.2989 46.8917 14.9973ZM53.986 15.2018C53.986 17.5855 55.5855 19.2791 58.0155 19.2791C60.4469 19.2791 62.0464 17.5855 62.0464 15.2018C62.0464 12.8182 60.4469 11.1246 58.0162 11.1246C55.5855 11.1246 53.986 12.8182 53.986 15.2018ZM55.9149 15.2018C55.9149 13.8061 56.746 12.8339 58.0162 12.8339C59.2864 12.8339 60.1176 13.8061 60.1176 15.2018C60.1176 16.5818 59.2858 17.5698 58.0162 17.5698C56.746 17.5698 55.9149 16.5818 55.9149 15.2018ZM64.1165 9.76092C64.7437 9.76092 65.2619 9.25842 65.2619 8.61546C65.2619 7.98819 64.7437 7.48705 64.1165 7.48705C63.4735 7.48705 62.9874 7.98887 62.9874 8.61546C62.9874 9.2591 63.4735 9.76092 64.1165 9.76092ZM63.1599 19.0909H65.073V11.3455H63.1599V19.0909ZM66.7496 22.6821H68.6158V18.0246C69.1019 18.8243 70.1526 19.2948 71.313 19.2948C73.6026 19.2948 74.9669 17.5384 74.9355 15.1234C74.8885 12.6927 73.4928 11.1089 71.2974 11.1089C70.1212 11.1089 69.0549 11.6264 68.5844 12.5202L68.4746 11.3441H66.7496V22.6821ZM68.6942 15.2175C68.6942 13.8218 69.541 12.8496 70.8739 12.8496C72.2069 12.8496 73.0067 13.8375 73.0067 15.2175C73.0067 16.5975 72.2069 17.5698 70.8739 17.5698C69.541 17.5698 68.6942 16.6132 68.6942 15.2175ZM75.421 16.77C75.4837 18.3068 76.6755 19.2948 78.526 19.2948C80.3451 19.2948 81.5839 18.3225 81.5839 16.8171C81.5839 15.7036 80.8939 14.9509 79.6237 14.6373L78.2594 14.308C77.6792 14.1511 77.2871 13.9473 77.2871 13.4455C77.2871 12.9123 77.7105 12.5359 78.4005 12.5359C79.1219 12.5359 79.5924 12.9436 79.5924 13.618H81.333C81.2703 12.0811 80.1255 11.1089 78.4476 11.1089C76.7853 11.1089 75.5465 12.0811 75.5465 13.5552C75.5465 14.5589 76.1267 15.39 77.6164 15.7821L78.9651 16.1271C79.4669 16.2682 79.7805 16.5034 79.7805 16.9425C79.7805 17.5541 79.2003 17.8364 78.4946 17.8364C77.6478 17.8364 77.1617 17.4443 77.1617 16.77H75.421ZM85.5528 19.2948C86.6035 19.2948 87.6071 18.8086 88.0619 18.0873L88.1874 19.0909H89.9751V11.3441H88.0619V15.4057C88.0619 16.8014 87.5287 17.5855 86.2742 17.5855C85.3019 17.5855 84.6276 17.115 84.6276 15.5155V11.3441H82.7144V16.1898C82.7144 18.0402 83.718 19.2948 85.5528 19.2948ZM93.5764 19.0909V14.6373C93.5764 13.3827 94.3135 12.7868 95.223 12.7868C96.1326 12.7868 96.7285 13.3671 96.7285 14.4648V19.0909H98.5946V14.653C98.5946 13.3827 99.316 12.7868 100.226 12.7868C101.151 12.7868 101.747 13.3671 101.747 14.4648V19.0909H103.597V14.0257C103.597 12.238 102.609 11.1089 100.727 11.1089C99.5512 11.1089 98.626 11.6734 98.2496 12.583C97.8262 11.6734 96.9794 11.1089 95.6935 11.1089C94.784 11.1089 93.9685 11.5323 93.5137 12.2223L93.4196 11.3441H91.6633V19.0909H93.5764ZM88.9899 26.0141C89.1293 26.0126 89.2627 25.957 89.3621 25.8591C89.4614 25.7611 89.5188 25.6285 89.5224 25.4891C89.5208 25.3483 89.4642 25.2137 89.3647 25.1141C89.2652 25.0145 89.1307 24.9577 88.9899 24.9559C88.8479 24.9563 88.7118 25.0123 88.6108 25.1121C88.5098 25.2118 88.452 25.3472 88.4499 25.4891C88.4499 25.7734 88.6974 26.0141 88.9899 26.0141ZM90.0726 24.0791C90.0726 25.2266 90.7776 25.9991 91.8051 25.9991C92.6901 25.9991 93.3651 25.4666 93.5076 24.6716H92.8326C92.7051 25.1141 92.3151 25.3766 91.8501 25.3766C91.1901 25.3766 90.7701 24.8666 90.7701 24.0716C90.7701 23.2616 91.2126 22.7666 91.8651 22.7666C92.3151 22.7666 92.7051 23.0066 92.8251 23.4791H93.5001C93.3801 22.6766 92.7501 22.1359 91.8726 22.1359C90.8076 22.1359 90.0726 22.9241 90.0726 24.0791ZM93.7735 24.0709C93.7735 25.1734 94.5235 25.9991 95.6485 25.9991C96.7735 25.9991 97.5235 25.1741 97.5235 24.0709C97.5235 22.9684 96.7735 22.1434 95.6485 22.1434C94.5235 22.1434 93.7735 22.9677 93.7735 24.0709ZM94.486 24.0709C94.486 23.3209 94.9435 22.7734 95.6485 22.7734C96.3535 22.7734 96.811 23.3209 96.811 24.0709C96.811 24.8209 96.3535 25.3691 95.6485 25.3691C94.9435 25.3691 94.486 24.8216 94.486 24.0709ZM98.8305 25.9159V23.7116C98.8305 23.1334 99.1905 22.7584 99.7155 22.7584C100.218 22.7584 100.533 23.0816 100.533 23.6584V25.9166H101.223V23.7184C101.223 23.1334 101.576 22.7591 102.108 22.7591C102.603 22.7591 102.918 23.0809 102.918 23.6591V25.9159H103.601V23.5091C103.601 22.6616 103.106 22.1441 102.266 22.1441C101.696 22.1441 101.253 22.4216 101.073 22.8709C100.886 22.4209 100.473 22.1441 99.873 22.1441C99.4155 22.1441 99.0105 22.3534 98.808 22.7134L98.7555 22.2491H98.1255V25.9166H98.8305V25.9159Z" fill="#AAAAA5"/>
<path fill-rule="evenodd" clip-rule="evenodd" d="M1.36328 15.2966L1.36464 15.1602L1.36737 15.0239L1.37146 14.8868L1.37692 14.7505L1.38374 14.6134L1.39192 14.4771L1.40214 14.34L1.41305 14.2036L1.42533 14.0673L1.43896 13.9302L1.45464 13.7939L1.47169 13.6575L1.4901 13.5211L1.50919 13.3848L1.53033 13.2491L1.55283 13.1134L1.57669 12.9777L1.60192 12.8427L1.62851 12.7071L1.65578 12.5721L1.68578 12.4371L1.71646 12.3027L1.74851 12.1684L1.7826 12.0341L1.81669 11.9005L1.85351 11.7668L1.89101 11.6339L1.92987 11.5009L1.97078 11.368L2.01169 11.2357L2.05533 11.1041L2.10033 10.9725L2.14601 10.8416L2.19374 10.7107L2.24146 10.5805L2.29192 10.4509L2.34305 10.3214L2.39624 10.1918L2.4501 10.0636L2.50533 9.93547L2.56192 9.80797L2.62055 9.68115L2.67987 9.55433L2.74055 9.42887L2.80192 9.30342L2.86533 9.17797L2.9301 9.05387L2.99624 8.93047L3.06305 8.80774L3.13192 8.68501L3.20146 8.56228L3.27305 8.4416L3.34533 8.32092L3.41896 8.20092L3.49396 8.0816L3.56964 7.96297L3.64669 7.84569L3.72578 7.72842L3.80555 7.61183L3.88669 7.49592L3.96851 7.38137L4.05237 7.26683L4.13692 7.15365L4.22283 7.04115L4.3101 6.92933L4.39737 6.81819L4.48669 6.70774L4.57737 6.59865L4.66874 6.48956L4.76215 6.38251L4.85624 6.27547L4.95169 6.16978L5.04714 6.06478L5.14464 5.96047L5.24351 5.85751L5.34305 5.75524L5.44328 5.65365L5.54555 5.55342L5.64783 5.45387L5.75215 5.35569L5.85646 5.25819L5.96283 5.16137L6.06987 5.06592L6.1776 4.97183L6.28669 4.87842L6.39646 4.78569L6.5076 4.69433L6.61942 4.60433L6.7326 4.51501L6.84646 4.42637L6.96169 4.33978L7.0776 4.25387L7.19351 4.16865L7.31146 4.08478L7.4301 4.00297L7.54942 3.92115L7.6701 3.84069L7.79078 3.7616L7.91351 3.68319L8.03624 3.60615L8.15965 3.53115L8.28442 3.45615L8.40987 3.38251L8.53533 3.31024L8.66283 3.23933L8.79033 3.16978L8.91851 3.1016L9.04805 3.03342L9.1776 2.96797L9.30851 2.90319L9.4401 2.83978L9.57237 2.77774L9.70465 2.71637L9.83828 2.65706L9.9726 2.59842L10.1076 2.54115L10.2426 2.48524L10.379 2.43069L10.5153 2.37751L10.6524 2.32569L10.7908 2.27524L10.9292 2.22615L11.0676 2.17842L11.2074 2.13137L11.3471 2.08637L11.4876 2.04274L11.6287 1.99978L11.7706 1.95887L11.9124 1.91933L12.0549 1.88047L12.1981 1.84365L12.3412 1.80819L12.4844 1.7741L12.629 1.74137L12.7735 1.71001L12.9187 1.68001L13.064 1.65137L13.2092 1.6241L13.3551 1.59819L13.5017 1.57365L13.6483 1.55115L13.7949 1.52933L13.9421 1.50887L14.0894 1.49047L14.2374 1.47342L14.3853 1.45774L14.5333 1.4441L14.6819 1.43047L14.8299 1.41956L14.9785 1.40933L15.779 1.36365L15.8246 5.21524H15.8506L15.961 5.21456L16.0715 5.21524L16.1819 5.21728L16.2924 5.22069L16.4028 5.22478L16.5133 5.23024L16.6237 5.23637L16.7342 5.24387L16.8446 5.25206L16.9551 5.26228L17.0656 5.27251L17.176 5.28478L17.2865 5.29774L17.3962 5.31137L17.5067 5.32637L17.6165 5.34274L17.7269 5.35978L17.836 5.37819L17.9458 5.39797L18.0556 5.41842L18.1646 5.43956L18.2737 5.46274L18.3828 5.48592L18.4919 5.51115L18.601 5.53706L18.7094 5.56433L18.8171 5.5916L18.9256 5.6216L19.0333 5.6516L19.1403 5.68297L19.2474 5.71501L19.3544 5.7491L19.4615 5.78319L19.5678 5.81865L19.6735 5.85547L19.7792 5.89297L19.8849 5.93183L19.9899 5.97206L20.0942 6.01297L20.1985 6.05456L20.3028 6.09751L20.4065 6.14183L20.5087 6.18683L20.6124 6.23251L20.7146 6.28024L20.8162 6.32797L20.9178 6.37706L21.0187 6.42751L21.119 6.47865L21.2192 6.53047L21.3187 6.58365L21.4176 6.63819L21.5165 6.69274L21.614 6.74933L21.7115 6.8066L21.809 6.86524L21.9051 6.92387L22.0006 6.98456L22.096 7.04592L22.1915 7.10728L22.2849 7.17069L22.3783 7.23478L22.4717 7.29956L22.5637 7.36569L22.6551 7.43251L22.7465 7.50069L22.8371 7.56887L22.9265 7.63842L23.0151 7.70933L23.1037 7.78024L23.1917 7.85251L23.2783 7.92615L23.3649 7.99978L23.4501 8.07478L23.5353 8.15115L23.6192 8.22751L23.7024 8.30524L23.7849 8.38365L23.8667 8.46342L23.9478 8.54319L24.0283 8.62501L24.1074 8.70683L24.1865 8.78865L24.2642 8.87251L24.3412 8.95637L24.4169 9.0416L24.4919 9.12751L24.5669 9.2141L24.6406 9.30137L24.7135 9.39001L24.7851 9.47865L24.8567 9.56865L24.9262 9.65865L24.9958 9.75001L25.064 9.84206L25.1321 9.93478L25.1983 10.0275L25.2637 10.1216L25.3285 10.2171L25.3919 10.3125L25.4553 10.408L25.5167 10.5048L25.5781 10.6023L25.6374 10.6998L25.6967 10.7986L25.7546 10.8982L25.8112 10.9977L25.8671 11.0986L25.9224 11.1996L25.9769 11.3011L26.0294 11.4034L26.0812 11.5057L26.1317 11.6093L26.1821 11.7136L26.2306 11.818L26.2783 11.923L26.3253 12.0286L26.371 12.1343L26.4153 12.2414L26.459 12.3484L26.5012 12.4555L26.5421 12.5639L26.5831 12.6723L26.6219 12.7814L26.6601 12.8905L26.6969 12.9996L26.7324 13.11L26.7671 13.2205L26.8012 13.3316L26.8333 13.4427L26.8646 13.5546L26.8946 13.6671L26.924 13.7789L26.9519 13.8921L26.9792 14.0052L27.0044 14.1184L27.029 14.2323L27.0521 14.3461L27.0746 14.4607L27.0951 14.5752L27.1156 14.6898L27.134 14.805L27.1517 14.9202L27.1681 15.0361L27.1831 15.1514L27.1967 15.2673L27.2103 15.3832L27.2212 15.4991L27.2321 15.6164L27.241 15.7323L27.2492 15.8496L27.256 15.9668L27.2615 16.0834L27.2662 16.2007L27.2696 16.318L27.2717 16.4352L27.2724 16.5525V16.6705L27.2703 16.7877L27.2676 16.905L27.2635 17.023L27.2587 17.1402L27.2519 17.2582L27.2451 17.3755L27.2356 17.4934L27.226 17.6107L27.2144 17.7286L27.2021 17.8459L27.1885 17.9632L27.1735 18.0805L27.1578 18.1977L27.1401 18.315L27.1217 18.4323L27.1019 18.5482L27.0815 18.6655L27.059 18.7821L27.0358 18.898L27.0112 19.0146L26.9853 19.1305L26.9581 19.2464L26.9308 19.3623L26.9008 19.4782L26.8701 19.5927L26.8387 19.708L26.806 19.8225L26.7719 19.9371L26.7365 20.0516L26.6996 20.1648L26.6621 20.2786L26.6233 20.3918L26.5831 20.505L26.5421 20.6175L26.4999 20.7293L26.4562 20.8411L26.4112 20.953L26.3656 21.0641L26.3178 21.1746L26.2701 21.285L26.221 21.3941L26.1706 21.5039L26.1187 21.613L26.0656 21.7221L26.0117 21.8298L25.9571 21.9368L25.9006 22.0439L25.8433 22.1509L25.7846 22.2566L25.7253 22.3623L25.664 22.4673L25.6026 22.5716L25.5399 22.6752L25.4758 22.7789L25.411 22.8811L25.3449 22.9834L25.2774 23.0857L25.2092 23.1859L25.1396 23.2861L25.0694 23.3864L24.9978 23.4852L24.9256 23.5834L24.8519 23.6809L24.7769 23.7784L24.7019 23.8739L24.6249 23.97L24.5471 24.0655L24.4687 24.1596L24.389 24.253L24.3085 24.3457L24.2267 24.4377L24.1442 24.5284L24.0603 24.6191L23.9758 24.7091L23.8906 24.7977L23.804 24.8857L23.7167 24.973L23.6281 25.0596L23.5394 25.1448L23.4487 25.23L23.3574 25.3139L23.2653 25.3971L23.1726 25.4789L23.0785 25.5607L22.9844 25.6411L22.889 25.7202L22.7921 25.7993L22.6946 25.8771L22.5965 25.9534L22.4976 26.0298L22.3981 26.1048L22.2978 26.1784L22.1962 26.2514L22.094 26.3236L21.9917 26.3952L21.8874 26.4648L21.7831 26.5343L21.6774 26.6025L21.5717 26.6693L21.4653 26.7355L21.3576 26.8009L21.2492 26.865L21.1401 26.9284L21.031 26.9898L20.9206 27.0511L20.8094 27.1111L20.6983 27.1698L20.5858 27.2277L20.4733 27.285L20.3594 27.3402L20.2456 27.3948L20.1303 27.4486L20.0151 27.5005L19.8992 27.5523L19.7833 27.6021L19.666 27.6511L19.5481 27.6989L19.4301 27.7459L19.3115 27.7916L19.1921 27.8359L19.0721 27.8796L18.9521 27.9218L18.8315 27.9627L18.7101 28.0023L18.5887 28.0411L18.466 28.0786L18.3433 28.1148L18.2206 28.1502L18.0978 28.1843L17.9737 28.2164L17.8496 28.2484L17.7249 28.2784L17.6001 28.3077L17.4746 28.335L17.3492 28.3623L17.2231 28.3882L17.0969 28.4121L16.9701 28.4352L16.8433 28.4571L16.7165 28.4775L16.589 28.4966L16.4615 28.515L16.3333 28.5321L16.2051 28.5477L16.0769 28.5614L15.9487 28.575L15.8192 28.5866L15.691 28.5975L15.5615 28.6064L15.4326 28.6146L15.3031 28.6214L15.1735 28.6268L15.044 28.6309L14.9144 28.6343L14.7849 28.6357L14.6553 28.6364L14.5251 28.6357L14.3956 28.6336L14.2646 28.6302L14.1351 28.6255L14.0056 28.6193L13.8746 28.6125L13.7451 28.6036L13.6156 28.5941L13.4853 28.5832L13.3558 28.5709L13.2256 28.5573L13.096 28.5423L12.9665 28.5259L12.8369 28.5089L12.7074 28.4898L12.5778 28.4693L12.4483 28.4489L12.3201 28.4264L12.1906 28.4025L12.0624 28.3773L11.9342 28.3507L11.806 28.3234L11.6778 28.2941L11.5503 28.2641L11.4228 28.2327L11.296 28.2L11.1692 28.1659L11.0424 28.1305L10.9162 28.0943L10.7901 28.0568L10.6646 28.018L10.5392 27.9771L10.4144 27.9361L10.2896 27.8932L10.1656 27.8496L10.0421 27.8039L9.91874 27.7575L9.79601 27.7098L9.67328 27.6614L9.55055 27.6109L9.42987 27.5598L9.30851 27.5073L9.18783 27.4534L9.06783 27.3989L8.94783 27.3423L8.82919 27.285L8.71055 27.2264L8.5926 27.1664L8.47533 27.1057L8.35874 27.0436L8.24214 26.9802L8.12624 26.9161L8.01169 26.8507L7.89715 26.7839L7.78328 26.7157L7.6701 26.6468L7.5576 26.5766L7.44578 26.505L7.33465 26.4327L7.22419 26.3591L7.1151 26.2841L7.00601 26.2091L6.89692 26.1321L6.78987 26.0543L6.68283 25.9752L6.57715 25.8948L6.47215 25.813L6.36714 25.7311L6.26351 25.648L6.16124 25.5634L6.05896 25.4782L5.95805 25.3916L5.85783 25.3043L5.75828 25.2157L5.65942 25.1264L5.56192 25.0357L5.4651 24.9443L5.36896 24.8516L5.27351 24.7582L5.1801 24.6634L5.08669 24.568L4.99465 24.4725L4.90328 24.3743L4.8126 24.2761L4.72396 24.1773L4.63533 24.0771L4.54805 23.9761L4.46146 23.8739L4.37624 23.7716L4.29169 23.668L4.20851 23.563L4.12669 23.458L4.04487 23.3516L3.96442 23.2446L3.88533 23.1368L3.8076 23.0277L3.73055 22.9186L3.65487 22.8082L3.57987 22.6971L3.50624 22.5846L3.43396 22.4721L3.36237 22.3589L3.29214 22.2443L3.2226 22.1298L3.15442 22.0139L3.08828 21.898L3.02214 21.7807L2.95805 21.6627L2.89464 21.5441L2.8326 21.4255L2.77124 21.3055L2.71192 21.1848L2.65328 21.0641L2.59601 20.9421L2.5401 20.82L2.48555 20.6973L2.43101 20.5739L2.37919 20.4498L2.32805 20.325L2.27828 20.1996L2.22987 20.0741L2.18214 19.948L2.13646 19.8211L2.09146 19.6936L2.04783 19.5661L2.00555 19.438L1.96464 19.3091L1.9251 19.1796L1.88692 19.05L1.8501 18.9205L1.81464 18.7902L1.78055 18.6593L1.74714 18.5284L1.71578 18.3968L1.6851 18.2646L1.65646 18.1323L1.62851 18L1.60192 17.8671L1.57737 17.7334L1.55351 17.5998L1.53169 17.4661L1.51124 17.3318L1.49078 17.1975L1.47305 17.0632L1.45601 16.9282L1.44101 16.7932L1.42737 16.6575L1.41374 16.5225L1.40283 16.3861L1.39328 16.2511L1.38442 16.1148L1.3776 15.9784L1.37214 15.8421L1.36805 15.7057L1.36464 15.5693L1.36328 15.433V15.2966ZM14.5756 5.29569L14.5442 2.67069L14.5149 2.67342L14.3792 2.68774L14.2442 2.70342L14.1092 2.72047L13.9749 2.73887L13.8399 2.75865L13.7056 2.7791L13.5719 2.8016L13.4383 2.82547L13.3053 2.85069L13.1717 2.8766L13.0394 2.90387L12.9065 2.93251L12.7749 2.96251L12.6433 2.99387L12.5124 3.0266L12.3815 3.06069L12.2506 3.09547L12.121 3.13228L11.9915 3.16978L11.8619 3.20865L11.7337 3.24887L11.6056 3.28978L11.4781 3.33274L11.3506 3.37637L11.2244 3.42137L11.0983 3.46774L10.9728 3.51547L10.8474 3.56387L10.7233 3.61365L10.5992 3.66478L10.4765 3.71728L10.3537 3.77047L10.231 3.82501L10.1096 3.88092L9.98896 3.93819L9.86896 3.99615L9.74896 4.05547L9.63033 4.11547L9.51237 4.17683L9.39442 4.23956L9.27851 4.30365L9.16192 4.36842L9.04601 4.43456L8.93214 4.50137L8.8176 4.56956L8.7051 4.6391L8.5926 4.70933L8.48078 4.78092L8.37033 4.85319L8.26055 4.92683L8.15146 5.00115L8.04237 5.07615L7.93533 5.15319L7.82896 5.23092L7.7226 5.30933L7.6176 5.3891L7.51396 5.46956L7.41033 5.55137L7.30805 5.63319L7.20715 5.71706L7.10624 5.8016L7.00669 5.88683L6.90851 5.97274L6.81033 6.06069L6.71351 6.14865L6.61805 6.23728L6.5226 6.32728L6.42919 6.41797L6.33578 6.51001L6.24442 6.60274L6.15305 6.69615L6.06305 6.79024L5.97442 6.88501L5.88578 6.98047L5.79919 7.07797L5.71396 7.17547L5.62874 7.27365L5.54487 7.37251L5.46237 7.47206L5.38055 7.57297L5.3001 7.67456L5.22101 7.77683L5.1426 7.8791L5.06487 7.98274L4.98851 8.08706L4.91351 8.19206L4.83987 8.29774L4.76692 8.40342L4.69533 8.51047L4.62442 8.61819L4.55555 8.7266L4.48737 8.83569L4.41919 8.94478L4.35374 9.05456L4.28896 9.16501L4.22555 9.27615L4.16283 9.38797L4.10146 9.50047L4.04146 9.61365L3.98215 9.72683L3.92487 9.84069L3.86828 9.95524L3.81237 10.0698L3.75851 10.1857L3.70533 10.3016L3.65419 10.4175L3.60305 10.5341L3.55396 10.6514L3.50624 10.7686L3.45919 10.8873L3.41351 11.0052L3.36919 11.1246L3.32624 11.2432L3.28396 11.3632L3.24305 11.4825L3.20419 11.6032L3.16601 11.7239L3.12919 11.8446L3.09374 11.9652L3.05964 12.0866L3.02624 12.2086L2.99419 12.3307L2.96351 12.4527L2.93419 12.5755L2.90692 12.6982L2.87964 12.8209L2.85442 12.9436L2.82987 13.0664L2.80737 13.1905L2.78555 13.3139L2.7651 13.4373L2.74601 13.5614L2.72828 13.6855L2.71192 13.8096L2.69624 13.9336L2.6826 14.0577L2.66964 14.1825L2.65805 14.3066L2.64783 14.4307L2.63896 14.5555L2.63214 14.6802L2.62533 14.8043L2.62055 14.9291L2.61646 15.0532L2.61442 15.178L2.61305 15.3021V15.4261L2.61442 15.5509L2.61714 15.675L2.62055 15.7991L2.62601 15.9232L2.63283 16.0466L2.63964 16.1707L2.64919 16.2941L2.65942 16.4175L2.67101 16.5402L2.68328 16.6636L2.69692 16.7864L2.7126 16.9091L2.72896 17.0318L2.74669 17.1546L2.76578 17.2766L2.78624 17.398L2.80737 17.5193L2.83055 17.6407L2.85442 17.7614L2.87964 17.8821L2.90555 18.0027L2.93283 18.1227L2.96214 18.2421L2.99214 18.3614L3.02351 18.4807L3.05555 18.5993L3.08964 18.7173L3.12374 18.8352L3.15987 18.9525L3.19737 19.0698L3.23555 19.1857L3.2751 19.3016L3.31601 19.4175L3.3576 19.5334L3.40055 19.648L3.44487 19.7618L3.48987 19.8757L3.53692 19.9889L3.58464 20.1014L3.63237 20.2139L3.68283 20.3257L3.73396 20.4368L3.78578 20.5473L3.83896 20.6571L3.89351 20.7661L3.94805 20.8752L4.00464 20.9836L4.0626 21.0914L4.12124 21.1977L4.18055 21.3041L4.24192 21.4098L4.30328 21.5148L4.36601 21.6198L4.42942 21.7234L4.49487 21.8257L4.56033 21.928L4.62715 22.0302L4.69533 22.1311L4.76351 22.2314L4.83374 22.3309L4.90464 22.4291L4.97624 22.5273L5.04919 22.6248L5.12283 22.7209L5.19783 22.8164L5.27283 22.9118L5.34987 23.0059L5.4276 23.0986L5.50601 23.1914L5.5851 23.2827L5.66555 23.3741L5.74669 23.4641L5.82851 23.5527L5.91101 23.6414L5.99487 23.7286L6.07942 23.8152L6.16464 23.9011L6.25055 23.9857L6.33783 24.0696L6.42578 24.1527L6.51442 24.2346L6.60374 24.3164L6.69374 24.3961L6.7851 24.4752L6.87646 24.5536L6.96919 24.6314L7.06192 24.7077L7.15601 24.7834L7.25146 24.8584L7.34692 24.9314L7.44237 25.0043L7.53919 25.0759L7.63669 25.1468L7.73487 25.2164L7.83374 25.2846L7.93328 25.3527L8.03283 25.4196L8.13374 25.485L8.23533 25.5498L8.33692 25.6132L8.43919 25.6759L8.54283 25.7373L8.64646 25.798L8.7501 25.8573L8.8551 25.9152L8.96078 25.9725L9.06646 26.0291L9.17283 26.0836L9.27919 26.1382L9.38692 26.1914L9.49465 26.2432L9.60305 26.2943L9.71214 26.3441L9.82124 26.3918L9.93033 26.4396L10.0408 26.4866L10.1512 26.5316L10.2624 26.5759L10.3735 26.6189L10.4853 26.6611L10.5971 26.7021L10.7096 26.7423L10.8221 26.7805L10.9353 26.818L11.0485 26.8548L11.1624 26.8896L11.2762 26.9236L11.3901 26.9571L11.5046 26.9891L11.6199 27.0198L11.7351 27.0491L11.8503 27.0777L11.9656 27.105L12.0815 27.1309L12.1974 27.1561L12.3133 27.18L12.4292 27.2025L12.5458 27.2243L12.6624 27.2448L12.7796 27.2639L12.8956 27.2816L13.0128 27.2986L13.1301 27.3143L13.2474 27.3293L13.3646 27.343L13.4819 27.3546L13.5992 27.3661L13.7171 27.3757L13.8344 27.3846L13.9517 27.3927L14.0696 27.3996L14.1869 27.4043L14.3042 27.4084L14.4221 27.4118L14.5394 27.4132L14.6567 27.4146L14.774 27.4139L14.8912 27.4125L15.0085 27.4098L15.1258 27.4057L15.2424 27.4009L15.3596 27.3941L15.4756 27.3873L15.5928 27.3791L15.7087 27.3696L15.8253 27.3586L15.9412 27.3471L16.0571 27.3334L16.1731 27.3198L16.289 27.3048L16.4035 27.2884L16.5187 27.2707L16.6333 27.2523L16.7478 27.2325L16.8624 27.2121L16.9762 27.1896L17.0901 27.1671L17.2033 27.1425L17.3165 27.1173L17.429 27.0914L17.5415 27.0641L17.6533 27.0355L17.7651 27.0055L17.8762 26.9755L17.9874 26.9434L18.0978 26.9107L18.2083 26.8766L18.3174 26.8425L18.4271 26.8064L18.5362 26.7689L18.6446 26.7307L18.7524 26.6918L18.8601 26.6516L18.9671 26.6107L19.0735 26.5684L19.1799 26.5255L19.2849 26.4811L19.3899 26.4361L19.4949 26.3898L19.5985 26.3421L19.7021 26.2943L19.8044 26.2452L19.9067 26.1948L20.009 26.1436L20.1099 26.0918L20.2108 26.0386L20.311 25.9841L20.4099 25.9296L20.5087 25.8736L20.6069 25.8171L20.7044 25.7591L20.8012 25.7005L20.8974 25.6405L20.9928 25.5805L21.0876 25.5191L21.1817 25.4564L21.2751 25.393L21.3678 25.3296L21.4599 25.2641L21.5512 25.1986L21.6412 25.1318L21.7312 25.0643L21.8199 24.9961L21.9085 24.9266L21.9965 24.8571L22.0831 24.7861L22.169 24.7146L22.2542 24.6423L22.3387 24.5686L22.4226 24.495L22.5051 24.42L22.5869 24.345L22.6687 24.268L22.7485 24.1909L22.8283 24.1132L22.9067 24.0348L22.9844 23.9557L23.0615 23.8759L23.1378 23.7948L23.2128 23.7136L23.2878 23.6318L23.3608 23.5486L23.4331 23.4655L23.5046 23.3816L23.5756 23.2964L23.6451 23.2111L23.7146 23.1252L23.7828 23.0386L23.8496 22.9514L23.9158 22.8634L23.9806 22.7748L24.0453 22.6861L24.1081 22.5968L24.1708 22.5068L24.2321 22.4161L24.2921 22.3248L24.3521 22.2327L24.4101 22.1407L24.4681 22.048L24.524 21.9546L24.5799 21.8605L24.6344 21.7664L24.6876 21.6709L24.7401 21.5761L24.7919 21.4807L24.8424 21.3846L24.8915 21.2877L24.9399 21.1909L24.9876 21.0934L25.034 20.9952L25.079 20.8971L25.124 20.7989L25.1669 20.6993L25.2092 20.6005L25.2501 20.5002L25.291 20.4007L25.3299 20.3005L25.3674 20.1996L25.4049 20.0986L25.4403 19.9971L25.4758 19.8955L25.5099 19.7932L25.5419 19.6916L25.574 19.5893L25.604 19.4864L25.634 19.3841L25.6626 19.2805L25.6899 19.1768L25.7158 19.0739L25.741 18.9696L25.7656 18.8659L25.7887 18.7616L25.8106 18.6573L25.831 18.553L25.8515 18.4486L25.8699 18.3443L25.8876 18.2393L25.904 18.1343L25.9196 18.0293L25.934 17.9243L25.9476 17.8193L25.9599 17.7136L25.9708 17.6086L25.981 17.503L25.9899 17.398L25.9981 17.2923L26.0049 17.1873L26.0103 17.0816L26.0151 16.9766L26.0185 16.8709L26.0212 16.7659L26.0226 16.6602V16.4502L26.0199 16.3452L26.0171 16.2402L26.0131 16.1352L26.0083 16.0302L26.0015 15.9259L25.9946 15.8209L25.9865 15.7166L25.9769 15.6123L25.9667 15.5086L25.9551 15.4043L25.9428 15.3007L25.9292 15.1971L25.9149 15.0934L25.8992 14.9905L25.8821 14.8875L25.8644 14.7852L25.8453 14.6823L25.8256 14.58L25.8051 14.4777L25.7833 14.3761L25.7601 14.2752L25.7362 14.1736L25.711 14.0727L25.6851 13.9725L25.6578 13.8723L25.6306 13.7727L25.6012 13.6725L25.5712 13.5736L25.5399 13.4748L25.5078 13.3759L25.4751 13.2784L25.441 13.1802L25.4062 13.0834L25.3701 12.9866L25.3333 12.8898L25.2951 12.7943L25.2562 12.6982L25.2167 12.6027L25.1758 12.5086L25.1342 12.4139L25.0912 12.3205L25.0476 12.2271L25.0033 12.1343L24.9576 12.0416L24.9112 11.9496L24.8642 11.8582L24.8165 11.7675L24.7667 11.6775L24.7169 11.5875L24.6658 11.4989L24.6146 11.4102L24.5615 11.3216L24.5083 11.2343L24.4537 11.1471L24.3992 11.0611L24.3426 10.9752L24.286 10.89L24.2281 10.8061L24.1694 10.7216L24.1101 10.6384L24.0501 10.5566L23.9887 10.4741L23.9274 10.3923L23.8646 10.3118L23.8012 10.2321L23.7371 10.153L23.6724 10.0739L23.6069 9.99615L23.5401 9.9191L23.4726 9.84206L23.4051 9.76706L23.3369 9.69137L23.2667 9.61637L23.1971 9.54342L23.1262 9.47047L23.0546 9.39819L22.9824 9.3266L22.9094 9.25569L22.8358 9.18615L22.7615 9.1166L22.6865 9.04842L22.6115 8.98024L22.5351 8.9141L22.4581 8.84797L22.3803 8.78251L22.3026 8.71842L22.2242 8.65433L22.1444 8.5916L22.0646 8.53024L21.9842 8.46887L21.9031 8.40819L21.8212 8.34887L21.7394 8.29024L21.6569 8.23228L21.5737 8.17569L21.4899 8.1191L21.406 8.06456L21.3208 8.01001L21.2356 7.95547L21.1496 7.90365L21.0631 7.85183L20.9765 7.80069L20.8899 7.75092L20.8012 7.70183L20.714 7.65342L20.6253 7.60569L20.5367 7.55933L20.4467 7.51433L20.3574 7.46933L20.2667 7.42569L20.176 7.38274L20.0853 7.34115L19.994 7.30024L19.9026 7.25933L19.8071 7.21978L19.7185 7.18297L19.6251 7.14547L19.5324 7.10933L19.439 7.07387L19.3456 7.03978L19.2515 7.00569L19.1574 6.97297L19.0619 6.9416L18.9678 6.91092L18.8724 6.88092L18.7776 6.85228L18.6821 6.82501L18.5867 6.79774L18.4906 6.77183L18.3951 6.7466L18.2983 6.72274L18.2015 6.69956L18.1053 6.67774L18.0085 6.65728L17.9117 6.63683L17.8142 6.61706L17.7174 6.59933L17.6199 6.5816L17.5224 6.56592L17.4249 6.55024L17.3274 6.5366L17.2292 6.52297L17.1317 6.51001L17.0342 6.49842L16.936 6.48819L16.8378 6.47865L16.7403 6.47047L16.6421 6.46297L16.544 6.45615L16.4465 6.45069L16.3483 6.44592L16.2501 6.44183L16.1526 6.4391L16.0544 6.43774L15.9562 6.43637H15.8587L15.8383 6.43706L15.8696 9.04297H15.9971L16.0681 9.04433L16.1396 9.04637L16.2119 9.04842L16.2835 9.05183L16.3551 9.05592L16.4267 9.06069L16.4983 9.06615L16.5699 9.07228L16.6421 9.0791L16.7137 9.08592L16.7853 9.09478L16.8569 9.10365L16.9285 9.11319L17.0001 9.12342L17.0717 9.13433L17.1433 9.1466L17.2149 9.15887L17.2858 9.17251L17.3574 9.18615L17.4283 9.20047L17.4992 9.21615L17.5701 9.23251L17.641 9.24887L17.7119 9.2666L17.7828 9.28501L17.8531 9.30342L17.9233 9.32387L17.9935 9.34433L18.0637 9.36478L18.1333 9.3866L18.2035 9.4091L18.2731 9.43228L18.3426 9.45615L18.4108 9.48069L18.4803 9.50592L18.5485 9.53183L18.6181 9.5591L18.6862 9.58638L18.7544 9.61433L18.8226 9.64297L18.8894 9.67228L18.9576 9.70297L19.0244 9.73365L19.0912 9.76501L19.1574 9.79774L19.2235 9.83047L19.2896 9.86456L19.3558 9.89865L19.4212 9.93274L19.486 9.96887L19.5508 10.005L19.6156 10.0418L19.6796 10.08L19.7431 10.1182L19.8065 10.1571L19.8699 10.1966L19.9326 10.2375L19.9946 10.2784L20.0567 10.3193L20.1181 10.3616L20.1794 10.4046L20.2408 10.4475L20.3008 10.4918L20.3608 10.5368L20.4208 10.5818L20.4794 10.6282L20.5387 10.6746L20.5967 10.7223L20.6546 10.77L20.7119 10.8177L20.7692 10.8675L20.8258 10.9173L20.8817 10.9671L20.9369 11.0182L20.9921 11.0693L21.0467 11.1211L21.1012 11.1743L21.1544 11.2275L21.2076 11.2807L21.2601 11.3352L21.3119 11.3898L21.3637 11.4457L21.4149 11.5016L21.4653 11.5582L21.5151 11.6148L21.5642 11.6727L21.6133 11.7307L21.661 11.7893L21.7087 11.8486L21.7565 11.908L21.8028 11.9686L21.8485 12.0293L21.8942 12.0907L21.9385 12.1521L21.9828 12.2141L22.0265 12.2768L22.0694 12.3402L22.1117 12.4036L22.1533 12.4677L22.1942 12.5325L22.2351 12.5973L22.2746 12.6627L22.3135 12.7282L22.3524 12.795L22.3899 12.8611L22.4274 12.9286L22.4635 12.9961L22.4996 13.0643L22.5344 13.1325L22.5692 13.2007L22.6033 13.2702L22.636 13.3398L22.6687 13.41L22.7001 13.4802L22.7315 13.5511L22.7615 13.6221L22.7915 13.6936L22.8201 13.7652L22.8481 13.8368L22.8753 13.9098L22.9026 13.9821L22.9285 14.055L22.9537 14.1286L22.9783 14.2023L23.0021 14.2766L23.0246 14.3502L23.0471 14.4252L23.069 14.5002L23.0894 14.5752L23.1099 14.6502L23.129 14.7252L23.1474 14.8016L23.1651 14.8773L23.1821 14.9536L23.1985 15.0307L23.2135 15.1071L23.2285 15.1841L23.2421 15.2611L23.2558 15.3382L23.2674 15.4159L23.279 15.4936L23.2899 15.5714L23.2994 15.6491L23.309 15.7275L23.3171 15.8059L23.324 15.8843L23.3308 15.9627L23.3376 16.0418L23.3424 16.1202L23.3465 16.1993L23.3499 16.2784L23.3526 16.3575L23.3546 16.4366L23.3553 16.5164V16.6746L23.3533 16.7543L23.3512 16.8334L23.3478 16.9132L23.3444 16.993L23.3396 17.0721L23.3342 17.1518L23.3274 17.2316L23.3206 17.3114L23.3124 17.3905L23.3035 17.4702L23.294 17.55L23.2837 17.6291L23.2721 17.7089L23.2599 17.788L23.2469 17.8671L23.2333 17.9468L23.219 18.0259L23.2033 18.105L23.1869 18.1834L23.1699 18.2625L23.1521 18.3416L23.1331 18.42L23.114 18.4984L23.0935 18.5768L23.0724 18.6552L23.0499 18.733L23.0274 18.8107L23.0035 18.8884L22.979 18.9661L22.9537 19.0439L22.9278 19.1209L22.9006 19.198L22.8733 19.2743L22.8446 19.3514L22.8153 19.4271L22.7846 19.5034L22.754 19.5791L22.7219 19.6548L22.6899 19.7298L22.6558 19.8048L22.6217 19.8798L22.5876 19.9548L22.5515 20.0284L22.5146 20.1027L22.4778 20.1764L22.4396 20.2493L22.4008 20.3223L22.3606 20.3952L22.3203 20.4668L22.2794 20.5391L22.2371 20.6107L22.1942 20.6816L22.1512 20.7525L22.1069 20.8234L22.0619 20.893L22.0162 20.9625L21.9692 21.0321L21.9215 21.1009L21.8737 21.1691L21.8253 21.2373L21.7756 21.3055L21.7258 21.3723L21.6746 21.4391L21.6228 21.5052L21.571 21.5707L21.5178 21.6361L21.4633 21.7009L21.4087 21.765L21.3542 21.8291L21.2983 21.8925L21.2417 21.9552L21.1844 22.0173L21.1265 22.0786L21.0678 22.14L21.0085 22.2014L20.9485 22.2614L20.8878 22.3207L20.8265 22.38L20.7651 22.4386L20.7024 22.4966L20.639 22.5539L20.5749 22.6105L20.5108 22.6671L20.4453 22.7223L20.3799 22.7768L20.3137 22.8314L20.2462 22.8859L20.1787 22.9384L20.1106 22.9909L20.0424 23.0427L19.9728 23.0939L19.9033 23.145L19.8324 23.1948L19.7615 23.2439L19.6899 23.293L19.6183 23.3407L19.5453 23.3884L19.4724 23.4341L19.3987 23.4805L19.3244 23.5255L19.2494 23.5698L19.1744 23.6134L19.0994 23.6564L19.0224 23.6993L18.946 23.7402L18.869 23.7811L18.7912 23.8221L18.7128 23.8609L18.6344 23.8998L18.5553 23.938L18.4756 23.9748L18.3958 24.0116L18.3153 24.0471L18.2349 24.0818L18.1531 24.1159L18.0719 24.15L17.9901 24.1821L17.9083 24.2141L17.8251 24.2448L17.7419 24.2748L17.6587 24.3041L17.5749 24.3327L17.4903 24.3607L17.4058 24.388L17.3212 24.4139L17.236 24.4391L17.1508 24.4636L17.0649 24.4875L16.9783 24.51L16.8924 24.5325L16.8058 24.553L16.7185 24.5734L16.6312 24.5939L16.544 24.6123L16.456 24.63L16.3681 24.6471L16.2801 24.6627L16.1915 24.6784L16.1028 24.6921L16.0142 24.7057L15.9256 24.7193L15.8362 24.7309L15.7469 24.7418L15.6569 24.7514L15.5676 24.7609L15.4776 24.7691L15.3876 24.7766L15.2976 24.7834L15.2069 24.7889L15.1169 24.7936L15.0262 24.7977L14.9356 24.8005L14.8449 24.8025L14.7542 24.8039H14.5721L14.4815 24.8018L14.3908 24.7998L14.2994 24.7964L14.2087 24.7923L14.1174 24.7875L14.026 24.7814L13.9353 24.7746L13.844 24.7671L13.7533 24.7582L13.6619 24.7486L13.5712 24.7384L13.4806 24.7268L13.3892 24.7146L13.2985 24.7009L13.2078 24.6873L13.1171 24.6723L13.0265 24.6566L12.9365 24.6396L12.8458 24.6218L12.7558 24.6034L12.6658 24.5843L12.5758 24.5639L12.4865 24.5427L12.3965 24.5202L12.3078 24.4971L12.2178 24.4732L12.1292 24.4486L12.0406 24.4227L11.9519 24.3961L11.8633 24.3689L11.7746 24.3402L11.6874 24.3109L11.5994 24.2809L11.5121 24.2502L11.4249 24.2182L11.3376 24.1855L11.251 24.1514L11.1651 24.1173L11.0792 24.0818L10.9933 24.0457L10.9081 24.0082L10.8228 23.97L10.7383 23.9311L10.6537 23.8916L10.5699 23.8507L10.486 23.8098L10.4028 23.7675L10.3203 23.7246L10.2371 23.6802L10.1553 23.6352L10.0735 23.5902L9.99237 23.5432L9.91124 23.4961L9.83146 23.4484L9.75101 23.3993L9.67192 23.3496L9.59283 23.2984L9.51442 23.2473L9.43601 23.1955L9.35828 23.1423L9.28124 23.0884L9.20487 23.0339L9.12851 22.9786L9.05351 22.9227L8.97851 22.8655L8.90351 22.8082L8.82987 22.7496L8.75624 22.6902L8.68328 22.6302L8.61101 22.5689L8.53942 22.5075L8.46851 22.4461L8.39828 22.3827L8.32805 22.3193L8.25919 22.2546L8.19033 22.1898L8.12215 22.1236L8.05465 22.0575L7.98851 21.99L7.92237 21.9218L7.85692 21.8536L7.79214 21.7841L7.72805 21.7146L7.66464 21.6436L7.60192 21.5721L7.53987 21.5005L7.47851 21.4275L7.41783 21.3546L7.35783 21.2802L7.29919 21.2052L7.24055 21.1302L7.1826 21.0552L7.12601 20.9782L7.06942 20.9011L7.01419 20.8234L6.95965 20.7457L6.9051 20.6666L6.8526 20.5875L6.8001 20.5077L6.74828 20.4266L6.69783 20.3455L6.64805 20.2636L6.59896 20.1818L6.55055 20.1L6.50283 20.0161L6.45646 19.9323L6.41078 19.8484L6.36578 19.7632L6.32146 19.678L6.27783 19.5927L6.23555 19.5061L6.19396 19.4196L6.15305 19.333L6.11351 19.245L6.07465 19.1571L6.03646 19.0684L5.99896 18.9798L5.96283 18.8911L5.92737 18.8011L5.89328 18.7105L5.85919 18.6205L5.82646 18.5298L5.7951 18.4384L5.76374 18.3464L5.73374 18.2543L5.7051 18.1623L5.67714 18.0696L5.64987 17.9768L5.62328 17.8834L5.59805 17.79L5.57419 17.6959L5.55101 17.6018L5.52851 17.5071L5.50669 17.4123L5.48624 17.3168L5.46714 17.2221L5.44805 17.1266L5.43101 17.0311L5.41396 16.935L5.39828 16.8389L5.38396 16.7421L5.37033 16.6452L5.35737 16.5484L5.34578 16.4516L5.33487 16.3548L5.32533 16.2573L5.31646 16.1598L5.30896 16.0623L5.30214 15.9648L5.29669 15.8666L5.29192 15.7684L5.28783 15.6702L5.2851 15.5721L5.28374 15.4739L5.28305 15.3757V15.2775L5.28442 15.1786L5.28714 15.0805L5.29055 14.9816L5.29464 14.8834L5.3001 14.7846L5.30692 14.6864L5.31374 14.5875L5.32192 14.4893L5.33146 14.3905L5.34237 14.2923L5.35396 14.1934L5.36624 14.0952L5.37987 13.9971L5.39419 13.8989L5.40987 13.8007L5.42624 13.7025L5.44396 13.6043L5.46237 13.5068L5.48215 13.4093L5.5026 13.3118L5.52442 13.2143L5.54692 13.1168L5.57078 13.02L5.59533 12.9232L5.62124 12.8264L5.64851 12.7296L5.67578 12.6341L5.70442 12.5373L5.73374 12.4418L5.76442 12.3464L5.79646 12.2509L5.82919 12.1555L5.86328 12.06L5.89737 11.9659L5.93351 11.8718L5.96964 11.7777L6.00783 11.6843L6.04601 11.5909L6.08624 11.4975L6.12715 11.4048L6.16805 11.3127L6.21033 11.2207L6.25396 11.1293L6.29896 11.038L6.34396 10.9473L6.39033 10.8566L6.43805 10.7666L6.48578 10.6766L6.53555 10.588L6.58601 10.4993L6.63714 10.4107L6.68896 10.3227L6.74215 10.2355L6.79601 10.1482L6.85055 10.0623L6.90646 9.97637L6.96305 9.89047L7.02101 9.80592L7.07964 9.72138L7.13896 9.63751L7.19896 9.55365L7.26033 9.47115L7.32169 9.38933L7.3851 9.30751L7.44919 9.22569L7.51396 9.14524L7.57942 9.06547L7.64555 8.98637L7.71305 8.90728L7.78124 8.82956L7.8501 8.75183L7.91964 8.67478L7.99055 8.5991L8.06214 8.52342L8.13442 8.44842L8.20737 8.3741L8.28101 8.30047L8.35601 8.22751L8.43101 8.15524L8.50737 8.08433L8.58442 8.01342L8.66214 7.94319L8.74055 7.87433L8.82033 7.80547L8.9001 7.73728L8.98055 7.67047L9.06237 7.60433L9.14419 7.53819L9.22737 7.47342L9.31124 7.41001L9.39578 7.3466L9.48033 7.28387L9.56624 7.22251L9.65283 7.16115L9.7401 7.10183L9.82737 7.04251L9.91601 6.98387L10.0046 6.9266L10.0946 6.87001L10.1853 6.8141L10.276 6.75956L10.3674 6.70501L10.4594 6.65183L10.5521 6.59933L10.6456 6.54819L10.7396 6.49774L10.8344 6.44797L10.9299 6.39887L11.0253 6.35115L11.1208 6.3041L11.2176 6.25842L11.3151 6.21274L11.4126 6.1691L11.5108 6.12547L11.6096 6.08319L11.7085 6.04228L11.8087 6.00137L11.9083 5.96183L12.0092 5.92365L12.1101 5.88615L12.2124 5.84933L12.314 5.81388L12.4162 5.77978L12.5185 5.74569L12.6221 5.71297L12.7251 5.6816L12.8294 5.65092L12.9337 5.6216L13.0381 5.59297L13.1431 5.56569L13.2487 5.53842L13.3544 5.51319L13.4601 5.48865L13.5665 5.46547L13.6728 5.44297L13.7799 5.42115L13.8869 5.40069L13.9946 5.3816L14.1024 5.36319L14.2101 5.34615L14.3185 5.32978L14.4269 5.31478L14.5353 5.30115L14.5756 5.29569ZM14.6212 9.1616L14.5906 6.52569L14.5019 6.53797L14.4065 6.55228L14.311 6.56797L14.2156 6.58365L14.1201 6.60069L14.0253 6.6191L13.9306 6.63819L13.8365 6.65797L13.7424 6.67842L13.649 6.70024L13.5556 6.72274L13.4621 6.7466L13.3687 6.77115L13.2801 6.79501L13.1846 6.82228L13.0926 6.84956L13.0006 6.87683L12.9099 6.90615L12.8185 6.93615L12.7285 6.96683L12.6378 6.99819L12.5485 7.03024L12.4592 7.06365L12.3706 7.09774L12.2819 7.13183L12.1933 7.16797L12.106 7.20478L12.0187 7.2416L11.9321 7.27978L11.8456 7.31933L11.7596 7.35887L11.6744 7.39978L11.5892 7.44069L11.5046 7.48365L11.4215 7.5266L11.3376 7.57024L11.2551 7.61524L11.1719 7.66024L11.0901 7.7066L11.009 7.75365L10.9285 7.80137L10.8481 7.84978L10.7683 7.89887L10.6892 7.94933L10.6108 7.99978L10.5324 8.0516L10.4553 8.10342L10.3783 8.1566L10.3019 8.21047L10.2269 8.26501L10.1519 8.31956L10.0769 8.37547L10.0033 8.43206L9.93033 8.48865L9.85737 8.5466L9.78578 8.60524L9.71419 8.66456L9.64396 8.72456L9.57374 8.78456L9.50487 8.84592L9.43669 8.90728L9.36851 8.97001L9.30101 9.03274L9.23487 9.09615L9.16874 9.16092L9.10396 9.22569L9.03919 9.29047L8.97578 9.3566L8.91305 9.42342L8.85101 9.49024L8.78965 9.55842L8.72828 9.6266L8.66828 9.69478L8.60964 9.76433L8.55101 9.83456L8.49305 9.90478L8.43646 9.97569L8.38055 10.0466L8.32465 10.1189L8.2701 10.1911L8.21624 10.2641L8.16305 10.3377L8.11124 10.4114L8.05942 10.4857L8.00896 10.5607L7.95919 10.6357L7.9101 10.7107L7.86169 10.7871L7.81396 10.8634L7.7676 10.9405L7.72192 11.0175L7.67692 11.0952L7.6326 11.173L7.58964 11.2514L7.54669 11.3305L7.50578 11.4096L7.46487 11.4893L7.42396 11.5691L7.38578 11.6489L7.34692 11.7293L7.3101 11.8105L7.27328 11.8916L7.23783 11.9734L7.20305 12.0546L7.16896 12.1364L7.13624 12.2182L7.10351 12.3014L7.07214 12.3839L7.04215 12.4671L7.01215 12.5502L6.98351 12.6334L6.95624 12.7173L6.92896 12.8011L6.90237 12.8857L6.87714 12.9696L6.85328 13.0541L6.8301 13.1386L6.80692 13.2239L6.78578 13.3084L6.76533 13.3936L6.74487 13.4789L6.72578 13.5648L6.70805 13.65L6.69033 13.7359L6.67464 13.8211L6.65896 13.9071L6.64465 13.993L6.63101 14.0796L6.61737 14.1655L6.60646 14.2514L6.59487 14.338L6.58533 14.4239L6.57578 14.5105L6.5676 14.5964L6.56078 14.683L6.55396 14.7689L6.54851 14.8555L6.54374 14.9421L6.53964 15.028L6.53692 15.1146L6.53487 15.2005L6.53351 15.2864V15.4589L6.53555 15.5448L6.5376 15.6307L6.54101 15.7166L6.5451 15.8025L6.54987 15.8877L6.55601 15.973L6.56283 16.0589L6.57033 16.1441L6.57919 16.2293L6.58805 16.3139L6.59828 16.3991L6.60919 16.4836L6.62146 16.5682L6.63442 16.6521L6.64805 16.7359L6.66237 16.8205L6.67805 16.9036L6.69374 16.9875L6.71078 17.0707L6.72919 17.1539L6.7476 17.2364L6.76737 17.3189L6.78783 17.4007L6.80828 17.4832L6.83078 17.565L6.85396 17.6468L6.87783 17.7273L6.90237 17.8084L6.9276 17.8889L6.95351 17.9693L6.98078 18.0491L7.00805 18.1289L7.03669 18.208L7.06601 18.2871L7.09601 18.3655L7.12737 18.4439L7.15874 18.5216L7.19078 18.5993L7.22487 18.6764L7.25896 18.7534L7.29305 18.8291L7.32851 18.9055L7.36465 18.9805L7.40146 19.0555L7.43964 19.1305L7.47783 19.2055L7.51737 19.2791L7.55692 19.3521L7.59783 19.425L7.63874 19.498L7.68101 19.5696L7.72396 19.6411L7.7676 19.7121L7.81192 19.783L7.85692 19.8532L7.90192 19.9227L7.94828 19.9916L7.99601 20.0598L8.04305 20.128L8.09078 20.1961L8.13987 20.263L8.18964 20.3291L8.2401 20.3952L8.29055 20.4607L8.34237 20.5255L8.39419 20.5902L8.44669 20.6536L8.50055 20.7171L8.55442 20.7791L8.60896 20.8411L8.66351 20.9025L8.71942 20.9639L8.77601 21.0239L8.8326 21.0839L8.88987 21.1425L8.94783 21.2011L9.00646 21.2591L9.06578 21.3164L9.1251 21.373L9.1851 21.4289L9.24646 21.4834L9.30783 21.538L9.36919 21.5925L9.43124 21.6457L9.49396 21.6989L9.55737 21.7507L9.62078 21.8018L9.68487 21.853L9.74965 21.9027L9.8151 21.9525L9.88055 22.0009L9.94601 22.0486L10.0128 22.0964L10.0796 22.1427L10.1471 22.1891L10.2146 22.2341L10.2828 22.2784L10.351 22.3227L10.4206 22.3657L10.4894 22.408L10.559 22.4496L10.6292 22.4905L10.6994 22.5314L10.7703 22.5709L10.8412 22.6091L10.9128 22.6473L10.9851 22.6848L11.0567 22.7216L11.1296 22.7571L11.2019 22.7925L11.2756 22.8266L11.3485 22.8607L11.4221 22.8934L11.4958 22.9255L11.5708 22.9568L11.6444 22.9875L11.7194 23.0175L11.7944 23.0468L11.8694 23.0748L11.9444 23.1021L12.0208 23.1293L12.0958 23.1552L12.1721 23.1805L12.2485 23.205L12.3249 23.2289L12.4019 23.2521L12.4783 23.2746L12.5553 23.2957L12.6324 23.3161L12.7094 23.3366L12.7871 23.3557L12.8649 23.3741L12.9426 23.3911L13.0203 23.4082L13.0981 23.4246L13.1758 23.4396L13.2542 23.4539L13.3319 23.4675L13.4103 23.4811L13.4887 23.4927L13.5671 23.5043L13.6456 23.5146L13.724 23.5248L13.8024 23.5336L13.8808 23.5418L13.9592 23.5486L14.0376 23.5555L14.1167 23.5623L14.1951 23.5671L14.2735 23.5711L14.3519 23.5746L14.4303 23.5773L14.5087 23.5793L14.5871 23.5807H14.744L14.8217 23.58L14.9001 23.578L14.9778 23.5752L15.0562 23.5725L15.134 23.5684L15.2117 23.563L15.2894 23.5575L15.3671 23.5507L15.4442 23.5439L15.5212 23.5364L15.5983 23.5275L15.6753 23.518L15.7524 23.5077L15.8287 23.4968L15.9051 23.4852L15.9815 23.473L16.0571 23.4593L16.1335 23.4457L16.2085 23.4314L16.2842 23.4164L16.3592 23.4L16.4342 23.383L16.5092 23.3659L16.5842 23.3475L16.6578 23.3284L16.7315 23.3086L16.8058 23.2882L16.8787 23.2677L16.9524 23.2459L17.0246 23.2234L17.0976 23.2002L17.1699 23.1764L17.2415 23.1518L17.3131 23.1266L17.3846 23.1007L17.4556 23.0734L17.5265 23.0461L17.5967 23.0189L17.6669 22.9902L17.7365 22.9609L17.8053 22.9309L17.8742 22.9002L17.9424 22.8689L18.0106 22.8375L18.0787 22.8048L18.1462 22.7721L18.2131 22.738L18.2799 22.7039L18.346 22.6684L18.4115 22.633L18.4769 22.5968L18.5417 22.5593L18.6058 22.5218L18.6699 22.4836L18.7333 22.4455L18.7967 22.4059L18.8594 22.3664L18.9208 22.3255L18.9828 22.2846L19.0442 22.2436L19.1056 22.2007L19.1649 22.1584L19.2249 22.1148L19.2842 22.0711L19.3428 22.0268L19.4015 21.9818L19.4587 21.9368L19.516 21.8905L19.5726 21.8441L19.6285 21.7971L19.6844 21.7493L19.7396 21.7016L19.7942 21.6532L19.8487 21.6041L19.9019 21.5543L19.9544 21.5046L20.0069 21.4541L20.0587 21.4036L20.1099 21.3518L20.1603 21.3L20.2101 21.2482L20.2599 21.195L20.309 21.1418L20.3567 21.0886L20.4044 21.0341L20.4521 20.9796L20.4985 20.925L20.5442 20.8705L20.5892 20.8139L20.6342 20.758L20.6778 20.7014L20.7215 20.6448L20.7644 20.5875L20.8067 20.5302L20.8476 20.4723L20.8885 20.4136L20.9294 20.355L20.969 20.2964L21.0078 20.2371L21.046 20.1771L21.0835 20.1171L21.121 20.0571L21.1571 19.9964L21.1926 19.935L21.2281 19.8736L21.2621 19.813L21.2962 19.7516L21.329 19.6889L21.3617 19.6268L21.3931 19.5641L21.4244 19.5014L21.4544 19.438L21.4844 19.3752L21.5137 19.3111L21.5417 19.2477L21.569 19.1836L21.5962 19.1196L21.6228 19.0555L21.6481 18.9907L21.6733 18.9259L21.6978 18.8611L21.721 18.7957L21.7442 18.7302L21.766 18.6648L21.7878 18.5993L21.8083 18.5332L21.8287 18.4677L21.8478 18.4016L21.8662 18.3348L21.8846 18.2686L21.9017 18.2025L21.9181 18.1357L21.9344 18.0696L21.9494 18.0021L21.9637 17.9352L21.9774 17.8684L21.991 17.8016L22.0033 17.7348L22.0149 17.6673L22.0258 17.6005L22.036 17.533L22.0456 17.4661L22.0544 17.3986L22.0626 17.3318L22.0701 17.2636L22.0769 17.1968L22.0831 17.1293L22.0885 17.0618L22.0933 16.995L22.0974 16.9275L22.1001 16.8607L22.1028 16.7932L22.1049 16.7257L22.1062 16.6589V16.5246L22.1056 16.4577L22.1042 16.3909L22.1015 16.3241L22.0987 16.2573L22.0953 16.1905L22.0912 16.1243L22.0858 16.0575L22.0803 15.9914L22.0735 15.9252L22.0667 15.8591L22.0599 15.793L22.051 15.7275L22.0421 15.6614L22.0319 15.5959L22.0217 15.5305L22.0108 15.4657L21.9992 15.4009L21.9869 15.3361L21.9733 15.2714L21.9596 15.2066L21.946 15.1425L21.931 15.0784L21.9153 15.0143L21.899 14.9509L21.8826 14.8875L21.8649 14.8248L21.8471 14.7614L21.8281 14.6986L21.809 14.6366L21.7885 14.5739L21.7681 14.5125L21.7469 14.4511L21.7251 14.3891L21.7026 14.3277L21.6794 14.2671L21.6556 14.2064L21.6317 14.1464L21.6065 14.0864L21.5812 14.0264L21.5553 13.9671L21.5281 13.9084L21.5008 13.8498L21.4735 13.7911L21.4449 13.7332L21.4162 13.6752L21.3862 13.618L21.3569 13.5607L21.3262 13.5041L21.2949 13.4482L21.2628 13.3923L21.2308 13.3364L21.1981 13.2818L21.164 13.2259L21.1306 13.1714L21.0965 13.1175L21.0617 13.0643L21.0262 13.0111L20.9901 12.958L20.9533 12.9055L20.9165 12.8536L20.879 12.8018L20.8415 12.7507L20.8026 12.6996L20.7637 12.6498L20.7242 12.5993L20.6846 12.5502L20.6437 12.5011L20.6028 12.4527L20.5619 12.4043L20.521 12.3566L20.4781 12.3089L20.4358 12.2625L20.3928 12.2161L20.3492 12.1705L20.3049 12.1248L20.2606 12.0805L20.2162 12.0355L20.1712 11.9918L20.1256 11.9489L20.0792 11.9052L20.0328 11.863L19.9865 11.8214L19.9387 11.7805L19.891 11.7389L19.8433 11.698L19.7956 11.6584L19.7471 11.6189L19.6981 11.5807L19.6483 11.5418L19.5992 11.5043L19.5494 11.4668L19.4983 11.43L19.4478 11.3939L19.3967 11.3584L19.3456 11.323L19.2944 11.2889L19.2426 11.2548L19.1901 11.2207L19.1376 11.188L19.0851 11.1559L19.0319 11.1239L18.9781 11.0925L18.9249 11.0618L18.871 11.0318L18.8165 11.0018L18.7619 10.9732L18.7074 10.9446L18.6528 10.9173L18.5983 10.8893L18.5424 10.8621L18.4878 10.8361L18.4319 10.8109L18.3753 10.7857L18.3194 10.7611L18.2635 10.7373L18.2069 10.7141L18.1496 10.6909L18.0931 10.6691L18.0365 10.6473L17.9792 10.6268L17.9219 10.6064L17.864 10.5859L17.8067 10.5668L17.7487 10.5484L17.6908 10.5307L17.6328 10.513L17.5749 10.4959L17.5169 10.4796L17.4583 10.4639L17.3996 10.4489L17.3417 10.4352L17.2824 10.4209L17.2237 10.4073L17.1651 10.395L17.1065 10.3827L17.0471 10.3711L16.9885 10.3602L16.9292 10.35L16.8706 10.3398L16.8112 10.3309L16.7526 10.3221L16.6933 10.3146L16.634 10.3071L16.5746 10.3002L16.5153 10.2934L16.4567 10.2886L16.3974 10.2832L16.3381 10.2791L16.2787 10.275L16.2201 10.2716L16.1608 10.2689L16.1015 10.2668L16.0428 10.2655L15.9842 10.2648H15.8846L15.9153 12.8386H15.9678L16.0019 12.84L16.0353 12.8414L16.0694 12.8427L16.1035 12.8448L16.1376 12.8468L16.1717 12.8489L16.2058 12.8523L16.2399 12.8557L16.274 12.8591L16.3081 12.8632L16.3421 12.8673L16.3762 12.8721L16.4103 12.8768L16.4444 12.8823L16.4785 12.8884L16.5126 12.8946L16.5474 12.9014L16.5815 12.9082L16.6156 12.915L16.6496 12.9225L16.6837 12.9307L16.7178 12.9389L16.7519 12.9477L16.786 12.9566L16.8201 12.9661L16.8542 12.9757L16.8883 12.9859L16.9224 12.9968L16.9558 13.0077L16.9899 13.0186L17.0226 13.0302L17.0567 13.0425L17.0901 13.0548L17.1235 13.0671L17.1569 13.0807L17.1903 13.0943L17.2231 13.108L17.2565 13.1216L17.2892 13.1359L17.3219 13.1509L17.3546 13.1659L17.3874 13.1816L17.4201 13.198L17.4521 13.2136L17.4849 13.2307L17.5169 13.2477L17.549 13.2648L17.581 13.2825L17.6124 13.3009L17.6444 13.3193L17.6758 13.3377L17.7071 13.3575L17.7385 13.3766L17.7692 13.3971L17.7999 13.4168L17.8306 13.4373L17.8612 13.4577L17.8919 13.4796L17.9219 13.5007L17.9519 13.5225L17.9812 13.545L18.0112 13.5675L18.0406 13.5907L18.0699 13.6139L18.0985 13.6371L18.1278 13.6609L18.1565 13.6855L18.1844 13.71L18.2124 13.7346L18.241 13.7598L18.2683 13.7857L18.2956 13.8116L18.3228 13.8375L18.3501 13.8648L18.3774 13.8907L18.4033 13.918L18.4299 13.9452L18.4558 13.9732L18.4817 14.0011L18.5069 14.0298L18.5321 14.0584L18.5574 14.0871L18.5819 14.1164L18.6065 14.1464L18.6303 14.1757L18.6542 14.2064L18.6781 14.2364L18.7012 14.2671L18.7244 14.2984L18.7469 14.3298L18.7694 14.3611L18.7912 14.3925L18.8131 14.4252L18.8349 14.4573L18.856 14.49L18.8765 14.5227L18.8969 14.5561L18.9174 14.5896L18.9378 14.6236L18.9569 14.6571L18.9767 14.6911L18.9951 14.7252L19.0142 14.76L19.0319 14.7955L19.0503 14.8302L19.0674 14.8657L19.0851 14.9011L19.1015 14.9373L19.1185 14.9727L19.1342 15.0096L19.1506 15.0457L19.1656 15.0825L19.1806 15.1193L19.1956 15.1561L19.2092 15.1936L19.2235 15.2311L19.2371 15.2686L19.2508 15.3068L19.2631 15.345L19.2753 15.3832L19.2876 15.4214L19.2992 15.4602L19.3108 15.4991L19.321 15.538L19.3319 15.5768L19.3421 15.6164L19.3517 15.6559L19.3606 15.6955L19.3694 15.735L19.3783 15.7752L19.3865 15.8148L19.3933 15.8557L19.4008 15.8952L19.4076 15.9361L19.4144 15.9771L19.4199 16.0173L19.426 16.0582L19.4308 16.0991L19.4356 16.14L19.4396 16.1809L19.4437 16.2218L19.4471 16.2634L19.4499 16.3043L19.4526 16.3466L19.4546 16.3875L19.456 16.4298L19.4574 16.4714L19.4581 16.513L19.4587 16.5552V16.6391L19.4574 16.6807L19.456 16.723L19.454 16.7652L19.4519 16.8075L19.4485 16.8498L19.4458 16.8921L19.4417 16.9336L19.4376 16.9766L19.4335 17.0189L19.4281 17.0605L19.4226 17.1034L19.4171 17.1457L19.4103 17.188L19.4035 17.2302L19.3967 17.2725L19.3885 17.3148L19.3803 17.3571L19.3721 17.3993L19.3626 17.4409L19.3531 17.4832L19.3435 17.5255L19.3333 17.5677L19.3217 17.6093L19.3108 17.6516L19.2992 17.6932L19.2869 17.7355L19.2733 17.7771L19.261 17.8186L19.2474 17.8602L19.2331 17.9018L19.2187 17.9434L19.2031 17.9843L19.1881 18.0259L19.1717 18.0668L19.1553 18.1077L19.139 18.1486L19.1212 18.1896L19.1035 18.2305L19.0858 18.2714L19.0667 18.3123L19.0476 18.3518L19.0285 18.3927L19.0081 18.4323L18.9876 18.4725L18.9671 18.5121L18.946 18.5516L18.9242 18.5911L18.9017 18.63L18.8792 18.6696L18.856 18.7084L18.8328 18.7466L18.809 18.7855L18.7844 18.8236L18.7592 18.8618L18.734 18.9L18.7087 18.9375L18.6821 18.975L18.6562 19.0125L18.629 19.0493L18.6017 19.0861L18.5737 19.123L18.5458 19.1598L18.5171 19.1959L18.4878 19.2314L18.4585 19.2675L18.4285 19.303L18.3985 19.3377L18.3671 19.3732L18.3365 19.4073L18.3051 19.4414L18.2731 19.4755L18.241 19.5096L18.2083 19.5436L18.1749 19.5771L18.1415 19.6098L18.1074 19.6425L18.0733 19.6746L18.0392 19.7066L18.0037 19.7386L17.9683 19.77L17.9328 19.8014L17.8967 19.8321L17.8599 19.8627L17.8231 19.8927L17.7856 19.9227L17.7481 19.9521L17.7106 19.9814L17.6724 20.01L17.6335 20.0386L17.5946 20.0666L17.5551 20.0939L17.5156 20.1218L17.4753 20.1491L17.4351 20.1757L17.3942 20.2016L17.3533 20.2282L17.3124 20.2534L17.2708 20.2786L17.2292 20.3032L17.1869 20.3277L17.144 20.3516L17.101 20.3755L17.0581 20.3986L17.0144 20.4211L16.9708 20.4436L16.9271 20.4655L16.8828 20.4873L16.8378 20.5084L16.7935 20.5289L16.7485 20.5493L16.7028 20.5698L16.6571 20.5889L16.6115 20.608L16.5651 20.6264L16.5187 20.6448L16.4717 20.6625L16.4253 20.6796L16.3776 20.6966L16.3306 20.713L16.2828 20.7286L16.2351 20.7443L16.1874 20.7593L16.1396 20.773L16.0906 20.788L16.0421 20.8016L15.9931 20.8146L15.944 20.8268L15.8949 20.8391L15.8458 20.8507L15.796 20.8623L15.7462 20.8725L15.6965 20.8834L15.646 20.893L15.5962 20.9025L15.5458 20.9107L15.4946 20.9196L15.4442 20.9271L15.3931 20.9339L15.3426 20.9407L15.2915 20.9475L15.2403 20.9536L15.1885 20.9584L15.1374 20.9632L15.0856 20.9673L15.0337 20.9714L14.9826 20.9748L14.9308 20.9775L14.8783 20.9796L14.8265 20.9816L14.7746 20.9823L14.7221 20.983H14.6178L14.5653 20.9823L14.5128 20.9809L14.4603 20.9789L14.4078 20.9761L14.3553 20.9734L14.3028 20.97L14.2503 20.9659L14.1978 20.9611L14.1446 20.9564L14.0921 20.9509L14.0396 20.9441L13.9871 20.9373L13.9346 20.9305L13.8821 20.923L13.8296 20.9148L13.7771 20.9059L13.7246 20.8964L13.6721 20.8861L13.6196 20.8759L13.5671 20.865L13.5146 20.8534L13.4628 20.8418L13.4103 20.8289L13.3585 20.8159L13.3067 20.8023L13.2542 20.7886L13.2024 20.7736L13.1512 20.7586L13.0994 20.743L13.0476 20.7266L12.9965 20.7096L12.9446 20.6925L12.8935 20.6741L12.8424 20.6557L12.7919 20.6373L12.7408 20.6175L12.6903 20.5971L12.6399 20.5766L12.5894 20.5561L12.5396 20.5343L12.4899 20.5125L12.4394 20.49L12.3903 20.4668L12.3406 20.443L12.2915 20.4191L12.2424 20.3946L12.1933 20.3693L12.1456 20.3434L12.0965 20.3175L12.0487 20.2902L12.001 20.263L11.9526 20.2357L11.9049 20.2071L11.8578 20.1784L11.8108 20.1491L11.7644 20.1198L11.7174 20.0891L11.6717 20.0584L11.6253 20.0277L11.5796 19.9957L11.5346 19.9636L11.489 19.9309L11.4446 19.8975L11.3996 19.8641L11.356 19.83L11.3117 19.7959L11.2681 19.7605L11.2251 19.725L11.1821 19.6889L11.1392 19.6521L11.0969 19.6152L11.0553 19.5777L11.0137 19.5402L10.9728 19.5021L10.9319 19.4632L10.891 19.4236L10.8508 19.3841L10.8112 19.3439L10.7717 19.3036L10.7328 19.2627L10.694 19.2218L10.6558 19.1796L10.6176 19.1373L10.5801 19.095L10.5433 19.0514L10.5065 19.0084L10.4703 18.9641L10.4342 18.9198L10.3994 18.8755L10.364 18.8305L10.3299 18.7848L10.2958 18.7391L10.2617 18.6927L10.229 18.6457L10.1956 18.5986L10.1635 18.5516L10.1315 18.5039L10.1001 18.4561L10.0694 18.4071L10.0387 18.3586L10.0094 18.3096L9.97942 18.2598L9.95078 18.21L9.92214 18.1596L9.89419 18.1091L9.86692 18.058L9.83965 18.0068L9.81237 17.9557L9.78714 17.9039L9.76124 17.8514L9.73669 17.7989L9.71214 17.7464L9.68828 17.6932L9.66442 17.64L9.64192 17.5861L9.61942 17.5323L9.5976 17.4777L9.57646 17.4239L9.55601 17.3693L9.53555 17.3148L9.51578 17.2589L9.49669 17.2036L9.47828 17.1477L9.46055 17.0918L9.44283 17.0359L9.42578 16.9793L9.40942 16.9227L9.39374 16.8655L9.37874 16.8089L9.36442 16.7516L9.35078 16.6936L9.33714 16.6364L9.32419 16.5784L9.31192 16.5205L9.30033 16.4618L9.28942 16.4039L9.27919 16.3452L9.26896 16.2866L9.2601 16.228L9.25124 16.1686L9.24305 16.1093L9.23624 16.05L9.22942 15.9907L9.2226 15.9314L9.21714 15.8714L9.21237 15.8121L9.20828 15.7521L9.20419 15.6921L9.20078 15.6321L9.19874 15.5721L9.19669 15.5114L9.19533 15.4514V15.27L9.19669 15.2086L9.19874 15.1486L9.20078 15.0873L9.20419 15.0273L9.2076 14.9659L9.21237 14.9059L9.21714 14.8446L9.22328 14.7846L9.22942 14.7232L9.23624 14.6625L9.24374 14.6018L9.25192 14.5411L9.26078 14.4805L9.27033 14.4198L9.28055 14.3591L9.29146 14.2991L9.30237 14.2377L9.31464 14.1777L9.3276 14.1171L9.34124 14.0571L9.35487 13.9971L9.36851 13.9364L9.38419 13.8764L9.40055 13.8164L9.41692 13.7564L9.43396 13.6971L9.45169 13.6371L9.4701 13.5777L9.48919 13.5184L9.50828 13.4591L9.52874 13.3998L9.54987 13.3405L9.57169 13.2818L9.59351 13.2232L9.61669 13.1646L9.63987 13.1059L9.66374 13.048L9.68896 12.99L9.71419 12.9321L9.7401 12.8748L9.76669 12.8168L9.79396 12.7602L9.82124 12.703L9.84987 12.6464L9.87851 12.5898L9.90851 12.5332L9.93851 12.4773L9.96919 12.4214L10.0012 12.3661L10.0333 12.3109L10.0653 12.2564L10.0994 12.2011L10.1328 12.1466L10.1669 12.0921L10.2024 12.0382L10.2378 11.985L10.274 11.9318L10.3108 11.8786L10.3483 11.8261L10.3865 11.7736L10.4246 11.7218L10.4642 11.67L10.5037 11.6189L10.544 11.5677L10.5849 11.5173L10.6258 11.4668L10.6681 11.4171L10.7103 11.3673L10.7533 11.3182L10.7969 11.2698L10.8412 11.2214L10.8856 11.1736L10.9312 11.1259L10.9769 11.0782L11.0226 11.0318L11.0696 10.9855L11.1174 10.9391L11.1651 10.8941L11.2128 10.8491L11.2619 10.8041L11.311 10.7598L11.3608 10.7161L11.4112 10.6732L11.4624 10.6302L11.5135 10.588L11.5653 10.5457L11.6178 10.5048L11.6703 10.4639L11.7235 10.423L11.7774 10.3834L11.8319 10.3439L11.8865 10.305L11.941 10.2661L11.9962 10.228L12.0521 10.1911L12.1087 10.1536L12.1653 10.1175L12.2226 10.0821L12.2806 10.0466L12.3385 10.0118L12.3971 9.97774L12.4558 9.94365L12.5151 9.91092L12.5751 9.87819L12.6351 9.84615L12.6951 9.81478L12.7565 9.78342L12.8178 9.75342L12.8792 9.7241L12.9406 9.69478L13.0033 9.66615L13.0653 9.63819L13.1287 9.61092L13.1921 9.58365L13.2556 9.55774L13.3196 9.53251L13.3837 9.50728L13.4485 9.48274L13.5133 9.45956L13.5781 9.43637L13.6435 9.41387L13.7096 9.39206L13.7758 9.37092L13.8419 9.35047L13.9087 9.33001L13.9756 9.31092L14.0424 9.29251L14.1099 9.2741L14.1774 9.25706L14.2456 9.24001L14.3137 9.22433L14.3819 9.20865L14.4501 9.19433L14.5183 9.18069L14.5878 9.16706L14.6219 9.16024L14.6212 9.1616ZM15.4681 14.1116L14.6826 14.2991L14.6362 10.4059L14.5994 10.4141L14.5435 10.4277L14.4876 10.4414L14.4324 10.455L14.3771 10.47L14.3226 10.4857L14.2674 10.5014L14.2128 10.5177L14.1583 10.5348L14.1051 10.5518L14.0506 10.5696L13.9974 10.588L13.9442 10.6071L13.891 10.6261L13.8385 10.6466L13.7853 10.6671L13.7335 10.6875L13.6817 10.7086L13.6292 10.7311L13.5781 10.753L13.5269 10.7761L13.4765 10.7993L13.426 10.8232L13.3756 10.8471L13.3258 10.8723L13.276 10.8975L13.2269 10.9227L13.1778 10.9486L13.1287 10.9759L13.081 11.0025L13.0333 11.0298L12.9856 11.0577L12.9378 11.0864L12.8908 11.115L12.8444 11.1443L12.7981 11.1736L12.7524 11.2036L12.7067 11.2343L12.6617 11.265L12.6167 11.2964L12.5724 11.3277L12.5281 11.3598L12.4844 11.3925L12.4415 11.4252L12.3985 11.4593L12.3562 11.4921L12.314 11.5261L12.2731 11.5602L12.2308 11.5957L12.1899 11.6305L12.1496 11.6659L12.1101 11.7021L12.0706 11.7382L12.031 11.775L11.9921 11.8118L11.954 11.8486L11.9158 11.8861L11.8783 11.9243L11.8415 11.9625L11.8053 12.0007L11.7685 12.0402L11.7331 12.0791L11.6976 12.1186L11.6635 12.1582L11.6287 12.1984L11.5946 12.2393L11.5612 12.2789L11.5285 12.3198L11.4958 12.3614L11.4637 12.4023L11.4324 12.4446L11.401 12.4868L11.3703 12.5291L11.3403 12.5714L11.3103 12.6143L11.2817 12.6573L11.2524 12.7002L11.2244 12.7439L11.1971 12.7875L11.1699 12.8311L11.1426 12.8755L11.116 12.9198L11.0908 12.9641L11.0649 13.0091L11.0403 13.0541L11.0158 13.0991L10.9919 13.1441L10.9687 13.1898L10.9456 13.2355L10.9237 13.2811L10.9019 13.3275L10.8801 13.3732L10.8596 13.4196L10.8392 13.4659L10.8187 13.513L10.8003 13.5593L10.7812 13.6064L10.7628 13.6534L10.7451 13.7005L10.7281 13.7475L10.711 13.7952L10.6946 13.843L10.679 13.89L10.664 13.9377L10.649 13.9855L10.6353 14.0332L10.6217 14.0809L10.6081 14.1286L10.5951 14.1764L10.5828 14.2248L10.5712 14.2725L10.5603 14.3216L10.5494 14.3693L10.5392 14.4177L10.5296 14.4661L10.5208 14.5146L10.5119 14.563L10.5037 14.6114L10.4969 14.6598L10.4894 14.7082L10.4826 14.7566L10.4771 14.805L10.471 14.8534L10.4662 14.9018L10.4615 14.9502L10.4581 14.9986L10.454 15.0471L10.4512 15.0955L10.4485 15.1439L10.4465 15.1923L10.4451 15.24L10.4444 15.2891L10.4437 15.3368V15.433L10.4451 15.4807L10.4465 15.5284L10.4485 15.5761L10.4512 15.6239L10.454 15.6716L10.4574 15.7193L10.4615 15.7671L10.4662 15.8148L10.471 15.8618L10.4765 15.9089L10.4819 15.9559L10.4887 16.0023L10.4956 16.0493L10.5024 16.0957L10.5106 16.1421L10.5187 16.1891L10.5276 16.2348L10.5365 16.2811L10.546 16.3268L10.5562 16.3725L10.5671 16.4182L10.5781 16.4639L10.5896 16.5089L10.6019 16.5539L10.6142 16.5989L10.6265 16.6439L10.6401 16.6882L10.6537 16.7325L10.6674 16.7768L10.6824 16.8205L10.6974 16.8641L10.7131 16.9077L10.7287 16.9507L10.7451 16.9943L10.7621 17.0373L10.7792 17.0796L10.7969 17.1218L10.8146 17.1641L10.8331 17.2064L10.8521 17.2473L10.8712 17.2896L10.891 17.3305L10.9115 17.3714L10.9319 17.4123L10.9524 17.4532L10.9728 17.4927L10.9946 17.533L11.0171 17.5725L11.0396 17.6121L11.0621 17.6509L11.0853 17.6898L11.1085 17.728L11.1324 17.7661L11.1569 17.8043L11.1815 17.8418L11.206 17.8793L11.2312 17.9168L11.2571 17.953L11.2831 17.9898L11.309 18.0259L11.3362 18.0621L11.3635 18.0975L11.3908 18.1323L11.4181 18.1671L11.4453 18.2018L11.474 18.2359L11.5026 18.27L11.5319 18.3041L11.5606 18.3368L11.5906 18.3696L11.6199 18.4023L11.6499 18.4343L11.6806 18.4664L11.7112 18.4977L11.7419 18.5291L11.7733 18.5598L11.8046 18.5905L11.8367 18.6205L11.8687 18.6505L11.9008 18.6798L11.9335 18.7084L11.9662 18.7371L11.9996 18.7657L12.0331 18.793L12.0665 18.8209L12.1006 18.8482L12.1346 18.8755L12.1687 18.9014L12.2028 18.9273L12.2376 18.9532L12.2724 18.9784L12.3078 19.0036L12.3433 19.0282L12.3787 19.0521L12.4142 19.0759L12.4503 19.0991L12.4865 19.1223L12.5226 19.1448L12.5587 19.1666L12.5956 19.1884L12.6324 19.2102L12.6692 19.2307L12.7067 19.2511L12.7442 19.2716L12.781 19.2921L12.8192 19.3111L12.8567 19.3302L12.8949 19.3486L12.9324 19.3664L12.9706 19.3848L13.0087 19.4018L13.0476 19.4189L13.0858 19.4352L13.1246 19.4516L13.1628 19.4673L13.2017 19.483L13.2412 19.4973L13.2801 19.5123L13.319 19.5259L13.3585 19.5396L13.3974 19.5532L13.4369 19.5661L13.4765 19.5784L13.516 19.5907L13.5556 19.6023L13.5951 19.6132L13.6346 19.6241L13.6749 19.6343L13.7144 19.6446L13.754 19.6541L13.7942 19.663L13.8337 19.6718L13.874 19.68L13.9135 19.6882L13.9544 19.6957L13.994 19.7025L14.0335 19.7093L14.0744 19.7161L14.114 19.7216L14.1535 19.7271L14.1937 19.7325L14.234 19.7373L14.2735 19.7414L14.3137 19.7455L14.3533 19.7489L14.3935 19.7516L14.4331 19.7543L14.4733 19.7564L14.5128 19.7584L14.5524 19.7598L14.5926 19.7611H14.6321L14.6717 19.7618H14.7508L14.7896 19.7605L14.8292 19.7591L14.8687 19.7577L14.9076 19.755L14.9471 19.753L14.986 19.7502L15.0249 19.7468L15.0631 19.7434L15.1019 19.7393L15.1408 19.7346L15.179 19.7305L15.2171 19.725L15.2553 19.7196L15.2935 19.7134L15.3317 19.7073L15.3699 19.7005L15.4074 19.6936L15.4449 19.6868L15.4824 19.6786L15.5199 19.6705L15.5567 19.6623L15.5942 19.6534L15.631 19.6446L15.6678 19.635L15.704 19.6255L15.7401 19.6152L15.7769 19.6043L15.8124 19.5934L15.8485 19.5825L15.884 19.5709L15.9194 19.5586L15.9549 19.5471L15.9903 19.5341L16.0251 19.5211L16.0599 19.5082L16.094 19.4946L16.1287 19.4809L16.1628 19.4673L16.1969 19.4523L16.231 19.4373L16.2644 19.4223L16.2978 19.4066L16.3306 19.3909L16.3633 19.3752L16.396 19.3589L16.4287 19.3425L16.4608 19.3255L16.4928 19.3084L16.5242 19.2907L16.5556 19.273L16.5869 19.2552L16.6183 19.2368L16.649 19.2177L16.679 19.1993L16.7096 19.1802L16.7396 19.1605L16.7696 19.1407L16.799 19.1209L16.8283 19.1005L16.8569 19.08L16.8856 19.0596L16.9142 19.0391L16.9421 19.0173L16.9701 18.9961L16.9974 18.9743L17.0246 18.9525L17.0519 18.93L17.0792 18.9082L17.1051 18.885L17.1317 18.8625L17.1576 18.8393L17.1835 18.8161L17.2087 18.7923L17.2333 18.7691L17.2585 18.7452L17.2831 18.7207L17.3069 18.6968L17.3308 18.6723L17.3546 18.6471L17.3778 18.6225L17.401 18.5973L17.4235 18.5721L17.446 18.5468L17.4678 18.5209L17.4896 18.495L17.5108 18.4691L17.5319 18.4432L17.5524 18.4173L17.5728 18.39L17.5933 18.3641L17.6137 18.3368L17.6328 18.3102L17.6519 18.283L17.671 18.2557L17.6894 18.2284L17.7078 18.2011L17.7256 18.1739L17.7433 18.1466L17.761 18.118L17.7774 18.0907L17.7944 18.0621L17.8108 18.0341L17.8265 18.0055L17.8421 17.9775L17.8578 17.9489L17.8728 17.9202L17.8871 17.8916L17.9015 17.863L17.9158 17.8336L17.9294 17.805L17.9431 17.7757L17.956 17.7471L17.9683 17.7177L17.9812 17.6884L17.9928 17.6591L18.0044 17.6298L18.016 17.6005L18.0269 17.5705L18.0378 17.5411L18.0481 17.5118L18.0583 17.4818L18.0678 17.4525L18.0774 17.4225L18.0862 17.3932L18.0951 17.3632L18.1033 17.3332L18.1115 17.3032L18.1196 17.2739L18.1265 17.2439L18.134 17.2139L18.1408 17.1839L18.1476 17.1546L18.1531 17.1239L18.1592 17.0946L18.1646 17.0646L18.1694 17.0346L18.1749 17.0046L18.179 16.9746L18.1831 16.9446L18.1871 16.9146L18.1906 16.8852L18.194 16.8552L18.1967 16.8252L18.1994 16.7959L18.2015 16.7659L18.2035 16.7366L18.2049 16.7066L18.2062 16.6773L18.2076 16.648V16.6186L18.2083 16.5886V16.5307L18.2076 16.5014L18.2069 16.4721L18.2056 16.4427L18.2042 16.4141L18.2021 16.3848L18.2001 16.3561L18.1981 16.3275L18.1953 16.2989L18.1919 16.2702L18.1892 16.2416L18.1851 16.213L18.1817 16.185L18.1776 16.1571L18.1728 16.1291L18.1681 16.1005L18.1633 16.0732L18.1578 16.0452L18.1524 16.018L18.1469 15.99L18.1401 15.9627L18.134 15.9355L18.1271 15.9082L18.1203 15.8809L18.1135 15.8536L18.106 15.8271L18.0978 15.7998L18.0903 15.7739L18.0821 15.7473L18.0733 15.7214L18.0644 15.6955L18.0556 15.6696L18.046 15.6436L18.0365 15.6184L18.0269 15.5925L18.0167 15.5673L18.0065 15.5421L17.9962 15.5168L17.9853 15.4923L17.9744 15.4677L17.9635 15.4432L17.9519 15.4186L17.9403 15.3948L17.9281 15.3702L17.9158 15.3464L17.9035 15.3232L17.8912 15.2993L17.8783 15.2761L17.8653 15.253L17.8517 15.2305L17.8381 15.2073L17.8244 15.1855L17.8108 15.163L17.7971 15.1405L17.7828 15.1186L17.7685 15.0968L17.7535 15.075L17.7392 15.0546L17.7235 15.0327L17.7085 15.0123L17.6935 14.9918L17.6778 14.9707L17.6621 14.9502L17.6458 14.9298L17.6301 14.9107L17.6137 14.8902L17.5974 14.8711L17.5803 14.8521L17.564 14.833L17.5469 14.8139L17.5299 14.7955L17.5121 14.7771L17.4951 14.7586L17.4774 14.7409L17.4596 14.7232L17.4419 14.7055L17.4242 14.6884L17.4058 14.6714L17.3874 14.6543L17.369 14.638L17.3506 14.6216L17.3321 14.6052L17.3131 14.5896L17.2946 14.5739L17.2756 14.5582L17.2565 14.5432L17.2367 14.5282L17.2176 14.5132L17.1978 14.4989L17.1787 14.4846L17.1583 14.4709L17.1392 14.4573L17.1187 14.4436L17.0996 14.43L17.0792 14.4164L17.0587 14.4041L17.039 14.3911L17.0185 14.3789L16.9981 14.3666L16.9776 14.355L16.9571 14.3434L16.9367 14.3318L16.9162 14.3202L16.8958 14.3093L16.8753 14.2991L16.8542 14.2882L16.8331 14.278L16.8126 14.2684L16.7915 14.2582L16.7703 14.2486L16.7492 14.2398L16.7281 14.2302L16.7069 14.2221L16.6858 14.2132L16.6646 14.205L16.6428 14.1968L16.6224 14.1893L16.6006 14.1811L16.5794 14.1743L16.5576 14.1675L16.5371 14.1607L16.5153 14.1539L16.4942 14.1471L16.4724 14.1409L16.4512 14.1348L16.4294 14.1293L16.409 14.1239L16.3871 14.1184L16.3653 14.1136L16.3442 14.1089L16.3231 14.1041L16.3012 14.1L16.2808 14.0959L16.259 14.0925L16.2371 14.0884L16.2167 14.085L16.1949 14.0823L16.1744 14.0789L16.1526 14.0761L16.1315 14.0741L16.111 14.0721L16.0892 14.07L16.0687 14.068L16.0476 14.0666L16.0265 14.0652L16.006 14.0639L15.9849 14.0632L15.9644 14.0625L15.9433 14.0618H15.8403L15.8199 14.0632L15.7994 14.0646L15.779 14.0652L15.7592 14.0666L15.7394 14.0686L15.719 14.07L15.6999 14.0721L15.6794 14.0741L15.6603 14.0768L15.6399 14.0796L15.6208 14.0823L15.6017 14.085L15.5819 14.0884L15.5628 14.0918L15.5437 14.0952L15.5246 14.0986L15.5056 14.1027L15.4871 14.1068L15.4681 14.1109V14.1116Z" fill="#AAAAA5"/>
</g>
<defs>
<clipPath id="clip0_23_2535">
<rect width="105" height="30" fill="white"/>
</clipPath>
</defs>
</svg>
